<svg width="250" height="178" viewBox="0 0 250 178" fill="none" xmlns="http://www.w3.org/2000/svg">
<path fill-rule="evenodd" clip-rule="evenodd" d="M107.142 87L4 87C1.79086 87 0 88.7909 0 91V174C0 176.209 1.79085 178 3.99999 178H246C248.209 178 250 176.209 250 174V91C250 88.7909 248.209 87 246 87L141.858 87C140.756 96.5889 133.405 104 124.5 104C115.595 104 108.244 96.5889 107.142 87Z" fill="#A04063"/>
<path d="M12.515 96.96V83.76L51.755 27.6H71.315V82.32H81.875V96.96H71.315V114H54.515V96.96H12.515ZM55.595 45.6L30.995 82.32H55.595V45.6ZM92.5709 69.12C92.5709 55.28 95.0509 44.44 100.011 36.6C105.051 28.76 113.371 24.84 124.971 24.84C136.571 24.84 144.851 28.76 149.811 36.6C154.851 44.44 157.371 55.28 157.371 69.12C157.371 83.04 154.851 93.96 149.811 101.88C144.851 109.8 136.571 113.76 124.971 113.76C113.371 113.76 105.051 109.8 100.011 101.88C95.0509 93.96 92.5709 83.04 92.5709 69.12ZM140.811 69.12C140.811 63.2 140.411 58.24 139.611 54.24C138.891 50.16 137.371 46.84 135.051 44.28C132.811 41.72 129.451 40.44 124.971 40.44C120.491 40.44 117.091 41.72 114.771 44.28C112.531 46.84 111.011 50.16 110.211 54.24C109.491 58.24 109.131 63.2 109.131 69.12C109.131 75.2 109.491 80.32 110.211 84.48C110.931 88.56 112.451 91.88 114.771 94.44C117.091 96.92 120.491 98.16 124.971 98.16C129.451 98.16 132.851 96.92 135.171 94.44C137.491 91.88 139.011 88.56 139.731 84.48C140.451 80.32 140.811 75.2 140.811 69.12ZM169.429 96.96V83.76L208.669 27.6H228.229V82.32H238.789V96.96H228.229V114H211.429V96.96H169.429ZM212.509 45.6L187.909 82.32H212.509V45.6Z" fill="#1F3451"/>
<path d="M39.8895 138.95C39.8895 139.883 39.6645 140.758 39.2145 141.575C38.7811 142.392 38.0895 143.05 37.1395 143.55C36.2061 144.05 35.0228 144.3 33.5895 144.3H30.6645V151H27.1645V133.55H33.5895C34.9395 133.55 36.0895 133.783 37.0395 134.25C37.9895 134.717 38.6978 135.358 39.1645 136.175C39.6478 136.992 39.8895 137.917 39.8895 138.95ZM33.4395 141.475C34.4061 141.475 35.1228 141.258 35.5895 140.825C36.0561 140.375 36.2895 139.75 36.2895 138.95C36.2895 137.25 35.3395 136.4 33.4395 136.4H30.6645V141.475H33.4395ZM41.4744 144.025C41.4744 142.625 41.7494 141.383 42.2994 140.3C42.8661 139.217 43.6244 138.383 44.5744 137.8C45.5411 137.217 46.6161 136.925 47.7994 136.925C48.8327 136.925 49.7327 137.133 50.4994 137.55C51.2827 137.967 51.9077 138.492 52.3744 139.125V137.15H55.8994V151H52.3744V148.975C51.9244 149.625 51.2994 150.167 50.4994 150.6C49.7161 151.017 48.8077 151.225 47.7744 151.225C46.6077 151.225 45.5411 150.925 44.5744 150.325C43.6244 149.725 42.8661 148.883 42.2994 147.8C41.7494 146.7 41.4744 145.442 41.4744 144.025ZM52.3744 144.075C52.3744 143.225 52.2077 142.5 51.8744 141.9C51.5411 141.283 51.0911 140.817 50.5244 140.5C49.9577 140.167 49.3494 140 48.6994 140C48.0494 140 47.4494 140.158 46.8994 140.475C46.3494 140.792 45.8994 141.258 45.5494 141.875C45.2161 142.475 45.0494 143.192 45.0494 144.025C45.0494 144.858 45.2161 145.592 45.5494 146.225C45.8994 146.842 46.3494 147.317 46.8994 147.65C47.4661 147.983 48.0661 148.15 48.6994 148.15C49.3494 148.15 49.9577 147.992 50.5244 147.675C51.0911 147.342 51.5411 146.875 51.8744 146.275C52.2077 145.658 52.3744 144.925 52.3744 144.075ZM64.7428 136.925C65.7761 136.925 66.6844 137.133 67.4678 137.55C68.2511 137.95 68.8678 138.475 69.3178 139.125V137.15H72.8428V151.1C72.8428 152.383 72.5844 153.525 72.0678 154.525C71.5511 155.542 70.7761 156.342 69.7428 156.925C68.7094 157.525 67.4594 157.825 65.9928 157.825C64.0261 157.825 62.4094 157.367 61.1428 156.45C59.8928 155.533 59.1844 154.283 59.0178 152.7H62.4928C62.6761 153.333 63.0678 153.833 63.6678 154.2C64.2844 154.583 65.0261 154.775 65.8928 154.775C66.9094 154.775 67.7344 154.467 68.3678 153.85C69.0011 153.25 69.3178 152.333 69.3178 151.1V148.95C68.8678 149.6 68.2428 150.142 67.4428 150.575C66.6594 151.008 65.7594 151.225 64.7428 151.225C63.5761 151.225 62.5094 150.925 61.5428 150.325C60.5761 149.725 59.8094 148.883 59.2428 147.8C58.6928 146.7 58.4178 145.442 58.4178 144.025C58.4178 142.625 58.6928 141.383 59.2428 140.3C59.8094 139.217 60.5678 138.383 61.5178 137.8C62.4844 137.217 63.5594 136.925 64.7428 136.925ZM69.3178 144.075C69.3178 143.225 69.1511 142.5 68.8178 141.9C68.4844 141.283 68.0344 140.817 67.4678 140.5C66.9011 140.167 66.2928 140 65.6428 140C64.9928 140 64.3928 140.158 63.8428 140.475C63.2928 140.792 62.8428 141.258 62.4928 141.875C62.1594 142.475 61.9928 143.192 61.9928 144.025C61.9928 144.858 62.1594 145.592 62.4928 146.225C62.8428 146.842 63.2928 147.317 63.8428 147.65C64.4094 147.983 65.0094 148.15 65.6428 148.15C66.2928 148.15 66.9011 147.992 67.4678 147.675C68.0344 147.342 68.4844 146.875 68.8178 146.275C69.1511 145.658 69.3178 144.925 69.3178 144.075ZM89.1361 143.775C89.1361 144.275 89.1028 144.725 89.0361 145.125H78.9111C78.9945 146.125 79.3445 146.908 79.9611 147.475C80.5778 148.042 81.3361 148.325 82.2361 148.325C83.5361 148.325 84.4611 147.767 85.0111 146.65H88.7861C88.3861 147.983 87.6195 149.083 86.4861 149.95C85.3528 150.8 83.9611 151.225 82.3111 151.225C80.9778 151.225 79.7778 150.933 78.7111 150.35C77.6611 149.75 76.8361 148.908 76.2361 147.825C75.6528 146.742 75.3611 145.492 75.3611 144.075C75.3611 142.642 75.6528 141.383 76.2361 140.3C76.8195 139.217 77.6361 138.383 78.6861 137.8C79.7361 137.217 80.9445 136.925 82.3111 136.925C83.6278 136.925 84.8028 137.208 85.8361 137.775C86.8861 138.342 87.6945 139.15 88.2611 140.2C88.8445 141.233 89.1361 142.425 89.1361 143.775ZM85.5111 142.775C85.4945 141.875 85.1695 141.158 84.5361 140.625C83.9028 140.075 83.1278 139.8 82.2111 139.8C81.3445 139.8 80.6111 140.067 80.0111 140.6C79.4278 141.117 79.0695 141.842 78.9361 142.775H85.5111ZM105.323 136.95C106.973 136.95 108.306 137.475 109.323 138.525C110.34 139.558 110.848 141.008 110.848 142.875V151H107.348V143.35C107.348 142.25 107.073 141.408 106.523 140.825C105.973 140.225 105.223 139.925 104.273 139.925C103.306 139.925 102.54 140.225 101.973 140.825C101.423 141.408 101.148 142.25 101.148 143.35V151H97.6479V137.15H101.148V138.875C101.615 138.275 102.206 137.808 102.923 137.475C103.656 137.125 104.456 136.95 105.323 136.95ZM120.326 151.225C118.993 151.225 117.793 150.933 116.726 150.35C115.66 149.75 114.818 148.908 114.201 147.825C113.601 146.742 113.301 145.492 113.301 144.075C113.301 142.658 113.61 141.408 114.226 140.325C114.86 139.242 115.718 138.408 116.801 137.825C117.885 137.225 119.093 136.925 120.426 136.925C121.76 136.925 122.968 137.225 124.051 137.825C125.135 138.408 125.985 139.242 126.601 140.325C127.235 141.408 127.551 142.658 127.551 144.075C127.551 145.492 127.226 146.742 126.576 147.825C125.943 148.908 125.076 149.75 123.976 150.35C122.893 150.933 121.676 151.225 120.326 151.225ZM120.326 148.175C120.96 148.175 121.551 148.025 122.101 147.725C122.668 147.408 123.118 146.942 123.451 146.325C123.785 145.708 123.951 144.958 123.951 144.075C123.951 142.758 123.601 141.75 122.901 141.05C122.218 140.333 121.376 139.975 120.376 139.975C119.376 139.975 118.535 140.333 117.851 141.05C117.185 141.75 116.851 142.758 116.851 144.075C116.851 145.392 117.176 146.408 117.826 147.125C118.493 147.825 119.326 148.175 120.326 148.175ZM134.194 140.025V146.725C134.194 147.192 134.302 147.533 134.519 147.75C134.752 147.95 135.135 148.05 135.669 148.05H137.294V151H135.094C132.144 151 130.669 149.567 130.669 146.7V140.025H129.019V137.15H130.669V133.725H134.194V137.15H137.294V140.025H134.194ZM152.118 140.025H149.693V151H146.143V140.025H144.568V137.15H146.143V136.45C146.143 134.75 146.626 133.5 147.593 132.7C148.56 131.9 150.018 131.525 151.968 131.575V134.525C151.118 134.508 150.526 134.65 150.193 134.95C149.86 135.25 149.693 135.792 149.693 136.575V137.15H152.118V140.025ZM160.536 151.225C159.203 151.225 158.003 150.933 156.936 150.35C155.869 149.75 155.028 148.908 154.411 147.825C153.811 146.742 153.511 145.492 153.511 144.075C153.511 142.658 153.819 141.408 154.436 140.325C155.069 139.242 155.928 138.408 157.011 137.825C158.094 137.225 159.303 136.925 160.636 136.925C161.969 136.925 163.178 137.225 164.261 137.825C165.344 138.408 166.194 139.242 166.811 140.325C167.444 141.408 167.761 142.658 167.761 144.075C167.761 145.492 167.436 146.742 166.786 147.825C166.153 148.908 165.286 149.75 164.186 150.35C163.103 150.933 161.886 151.225 160.536 151.225ZM160.536 148.175C161.169 148.175 161.761 148.025 162.311 147.725C162.878 147.408 163.328 146.942 163.661 146.325C163.994 145.708 164.161 144.958 164.161 144.075C164.161 142.758 163.811 141.75 163.111 141.05C162.428 140.333 161.586 139.975 160.586 139.975C159.586 139.975 158.744 140.333 158.061 141.05C157.394 141.75 157.061 142.758 157.061 144.075C157.061 145.392 157.386 146.408 158.036 147.125C158.703 147.825 159.536 148.175 160.536 148.175ZM183.404 137.15V151H179.879V149.25C179.429 149.85 178.837 150.325 178.104 150.675C177.387 151.008 176.604 151.175 175.754 151.175C174.67 151.175 173.712 150.95 172.879 150.5C172.045 150.033 171.387 149.358 170.904 148.475C170.437 147.575 170.204 146.508 170.204 145.275V137.15H173.704V144.775C173.704 145.875 173.979 146.725 174.529 147.325C175.079 147.908 175.829 148.2 176.779 148.2C177.745 148.2 178.504 147.908 179.054 147.325C179.604 146.725 179.879 145.875 179.879 144.775V137.15H183.404ZM194.532 136.95C196.182 136.95 197.515 137.475 198.532 138.525C199.549 139.558 200.057 141.008 200.057 142.875V151H196.557V143.35C196.557 142.25 196.282 141.408 195.732 140.825C195.182 140.225 194.432 139.925 193.482 139.925C192.515 139.925 191.749 140.225 191.182 140.825C190.632 141.408 190.357 142.25 190.357 143.35V151H186.857V137.15H190.357V138.875C190.824 138.275 191.415 137.808 192.132 137.475C192.865 137.125 193.665 136.95 194.532 136.95ZM202.485 144.025C202.485 142.625 202.76 141.383 203.31 140.3C203.877 139.217 204.643 138.383 205.61 137.8C206.577 137.217 207.652 136.925 208.835 136.925C209.735 136.925 210.593 137.125 211.41 137.525C212.227 137.908 212.877 138.425 213.36 139.075V132.5H216.91V151H213.36V148.95C212.927 149.633 212.318 150.183 211.535 150.6C210.752 151.017 209.843 151.225 208.81 151.225C207.643 151.225 206.577 150.925 205.61 150.325C204.643 149.725 203.877 148.883 203.31 147.8C202.76 146.7 202.485 145.442 202.485 144.025ZM213.385 144.075C213.385 143.225 213.218 142.5 212.885 141.9C212.552 141.283 212.102 140.817 211.535 140.5C210.968 140.167 210.36 140 209.71 140C209.06 140 208.46 140.158 207.91 140.475C207.36 140.792 206.91 141.258 206.56 141.875C206.227 142.475 206.06 143.192 206.06 144.025C206.06 144.858 206.227 145.592 206.56 146.225C206.91 146.842 207.36 147.317 207.91 147.65C208.477 147.983 209.077 148.15 209.71 148.15C210.36 148.15 210.968 147.992 211.535 147.675C212.102 147.342 212.552 146.875 212.885 146.275C213.218 145.658 213.385 144.925 213.385 144.075Z" fill="white"/>
</svg>
