<svg width="600" height="222" viewBox="0 0 600 222" fill="none" xmlns="http://www.w3.org/2000/svg">
<path d="M189.254 115.57C192.598 116.193 195.346 117.865 197.499 120.585C199.653 123.305 200.729 126.422 200.729 129.935C200.729 133.108 199.936 135.913 198.349 138.35C196.819 140.73 194.581 142.6 191.634 143.96C188.688 145.32 185.203 146 181.179 146H155.594V86.67H180.074C184.098 86.67 187.554 87.3217 190.444 88.625C193.391 89.9283 195.601 91.7417 197.074 94.065C198.604 96.3883 199.369 99.0233 199.369 101.97C199.369 105.427 198.434 108.317 196.564 110.64C194.751 112.963 192.314 114.607 189.254 115.57ZM167.494 111.15H178.374C181.208 111.15 183.389 110.527 184.919 109.28C186.449 107.977 187.214 106.135 187.214 103.755C187.214 101.375 186.449 99.5333 184.919 98.23C183.389 96.9267 181.208 96.275 178.374 96.275H167.494V111.15ZM179.479 136.31C182.369 136.31 184.608 135.63 186.194 134.27C187.838 132.91 188.659 130.983 188.659 128.49C188.659 125.94 187.809 123.957 186.109 122.54C184.409 121.067 182.114 120.33 179.224 120.33H167.494V136.31H179.479ZM222.114 83.1V146H210.214V83.1H222.114ZM277.646 121.435C277.646 123.135 277.533 124.665 277.306 126.025H242.881C243.164 129.425 244.354 132.088 246.451 134.015C248.548 135.942 251.126 136.905 254.186 136.905C258.606 136.905 261.751 135.007 263.621 131.21H276.456C275.096 135.743 272.489 139.483 268.636 142.43C264.783 145.32 260.051 146.765 254.441 146.765C249.908 146.765 245.828 145.773 242.201 143.79C238.631 141.75 235.826 138.888 233.786 135.205C231.803 131.522 230.811 127.272 230.811 122.455C230.811 117.582 231.803 113.303 233.786 109.62C235.769 105.937 238.546 103.103 242.116 101.12C245.686 99.1367 249.794 98.145 254.441 98.145C258.918 98.145 262.913 99.1083 266.426 101.035C269.996 102.962 272.744 105.71 274.671 109.28C276.654 112.793 277.646 116.845 277.646 121.435ZM265.321 118.035C265.264 114.975 264.159 112.538 262.006 110.725C259.853 108.855 257.218 107.92 254.101 107.92C251.154 107.92 248.661 108.827 246.621 110.64C244.638 112.397 243.419 114.862 242.966 118.035H265.321ZM312.427 98.23C318.037 98.23 322.57 100.015 326.027 103.585C329.483 107.098 331.212 112.028 331.212 118.375V146H319.312V119.99C319.312 116.25 318.377 113.388 316.507 111.405C314.637 109.365 312.087 108.345 308.857 108.345C305.57 108.345 302.963 109.365 301.037 111.405C299.167 113.388 298.232 116.25 298.232 119.99V146H286.332V98.91H298.232V104.775C299.818 102.735 301.83 101.148 304.267 100.015C306.76 98.825 309.48 98.23 312.427 98.23ZM339.468 122.285C339.468 117.525 340.403 113.303 342.273 109.62C344.2 105.937 346.806 103.103 350.093 101.12C353.38 99.1367 357.035 98.145 361.058 98.145C364.118 98.145 367.036 98.825 369.813 100.185C372.59 101.488 374.8 103.245 376.443 105.455V83.1H388.513V146H376.443V139.03C374.97 141.353 372.901 143.223 370.238 144.64C367.575 146.057 364.486 146.765 360.973 146.765C357.006 146.765 353.38 145.745 350.093 143.705C346.806 141.665 344.2 138.803 342.273 135.12C340.403 131.38 339.468 127.102 339.468 122.285ZM376.528 122.455C376.528 119.565 375.961 117.1 374.828 115.06C373.695 112.963 372.165 111.377 370.238 110.3C368.311 109.167 366.243 108.6 364.033 108.6C361.823 108.6 359.783 109.138 357.913 110.215C356.043 111.292 354.513 112.878 353.323 114.975C352.19 117.015 351.623 119.452 351.623 122.285C351.623 125.118 352.19 127.612 353.323 129.765C354.513 131.862 356.043 133.477 357.913 134.61C359.84 135.743 361.88 136.31 364.033 136.31C366.243 136.31 368.311 135.772 370.238 134.695C372.165 133.562 373.695 131.975 374.828 129.935C375.961 127.838 376.528 125.345 376.528 122.455Z" fill="#1F3451"/>
<path d="M390 39.2817C389.911 33.3312 388.188 28.8069 384.715 24.7548C379.962 19.2042 379.861 12.3046 384.335 6.595C386.125 4.31117 385.845 2.09479 383.597 0.731239C381.371 -0.617859 378.821 -0.0734019 376.942 2.14297C370.539 9.70756 370.203 21.0159 376.841 28.4745C381.83 34.078 382.299 42.5436 377.434 47.9015C375.801 49.7035 376.428 52.0355 378.48 53.3027C380.376 54.4735 383.043 54.1603 384.626 52.4354C388.412 48.3207 389.972 43.541 390 39.2817Z" fill="#1F3451"/>
<path d="M339.006 24.4895C339.077 28.7408 340.822 32.4503 344.512 35.7672C349.663 40.3953 349.788 45.9654 344.963 50.7112C343.13 52.5169 343.403 54.2441 345.699 55.3824C347.96 56.5012 350.808 56.0733 352.802 54.3147C359.816 48.1322 359.739 38.8408 352.529 32.3246C348.346 28.5445 347.503 24.4621 349.829 20.0892C350.363 19.0882 351.259 18.1618 352.12 17.259C353.817 15.4768 353.502 13.6476 351.2 12.5956C348.862 11.5239 346.198 11.9126 344.269 13.6476C340.626 16.9174 339.03 20.627 339 24.4935L339.006 24.4895Z" fill="#1F3451"/>
<path d="M403.005 24.4895C403.065 28.7408 404.534 32.4503 407.642 35.7672C411.979 40.3953 412.084 45.9654 408.022 50.7112C406.478 52.5169 406.708 54.2441 408.641 55.3824C410.545 56.5012 412.944 56.0733 414.623 54.3147C420.529 48.1322 420.464 38.8408 414.393 32.3246C410.87 28.5445 410.16 24.4621 412.119 20.0892C412.569 19.0882 413.324 18.1618 414.048 17.259C415.477 15.4768 415.212 13.6476 413.274 12.5956C411.305 11.5239 409.061 11.9126 407.437 13.6476C404.369 16.9174 403.025 20.627 403 24.4935L403.005 24.4895Z" fill="#1F3451"/>
<path fill-rule="evenodd" clip-rule="evenodd" d="M485 109.408C483.129 117.994 478.36 124.465 471.699 129.149C466.782 132.608 461.538 135.631 456.189 138.273C448.063 142.283 439.436 144.772 430.698 146.774L430.58 146.801C430.108 146.906 429.585 147.022 429.259 147.341C426.742 149.821 423.726 152.392 419.337 155H406.193C422.665 144.906 433.811 130.129 439.657 110.679C442.661 100.687 443.056 90.3995 442.856 80.0274C442.772 75.5416 441.48 74.0899 437.264 74.0899H379.88L379.885 74.1012H321.91C318.49 74.1012 316.687 75.6267 316.766 79.0009C316.803 80.5679 316.822 82.1396 316.841 83.7126L316.841 83.7133C316.85 84.4754 316.86 85.2378 316.871 86H308.366C308.339 83.6134 308.348 81.225 308.356 78.8432L308.356 78.8432C308.358 78.3567 308.359 77.8705 308.361 77.3847C308.376 71.4416 313.451 65.9124 318.943 65.2036C319.918 65.0788 320.908 65.0164 321.894 65.0107C360.475 64.9994 399.062 64.9937 437.644 65.0107C445.164 65.0107 450.223 69.4964 451.272 77.1068C451.432 78.2847 451.421 79.4909 451.41 80.6975C451.406 81.1987 451.401 81.7 451.409 82.1993C451.42 82.9064 451.416 83.6135 451.413 84.3052V84.3074C451.411 84.6468 451.409 84.9825 451.409 85.3126C452.497 85.1041 453.572 84.8636 454.638 84.6249C457.021 84.0913 459.363 83.567 461.723 83.4299C465.148 83.2314 468.742 83.3108 472.036 84.2125C479.366 86.22 483.187 91.942 484.573 99.7508C484.64 100.131 484.751 100.499 484.863 100.869C484.91 101.023 484.957 101.178 485 101.333V109.408ZM442.238 134.147C440.876 134.634 439.475 135.135 438.021 135.673L438.428 134.946L438.43 134.943C439.094 133.757 439.565 132.918 440.031 132.075C446.05 121.238 449.591 109.51 450.977 96.9891C451.045 96.3936 451.341 95.4806 451.741 95.3218C457.069 93.1952 462.539 91.6187 468.268 92.6281C473.343 93.5185 475.762 96.904 476.394 102.518C477.137 109.097 474.903 114.257 470.55 118.601C464.711 124.431 457.665 128.015 450.366 131.077C447.75 132.176 445.081 133.131 442.24 134.146L442.238 134.147Z" fill="#1F3451"/>
<path d="M390 39.2817C389.911 33.3312 388.188 28.8069 384.715 24.7548C379.962 19.2042 379.861 12.3046 384.335 6.595C386.125 4.31117 385.845 2.09479 383.597 0.731239C381.371 -0.617859 378.821 -0.0734019 376.942 2.14297C370.539 9.70756 370.203 21.0159 376.841 28.4745C381.83 34.078 382.299 42.5436 377.434 47.9015C375.801 49.7035 376.428 52.0355 378.48 53.3027C380.376 54.4735 383.043 54.1603 384.626 52.4354C388.412 48.3207 389.972 43.541 390 39.2817Z" fill="#1F3451"/>
<path d="M339.006 24.4895C339.077 28.7408 340.822 32.4503 344.512 35.7672C349.663 40.3953 349.788 45.9654 344.963 50.7112C343.13 52.5169 343.403 54.2441 345.699 55.3824C347.96 56.5012 350.808 56.0733 352.802 54.3147C359.816 48.1322 359.739 38.8408 352.529 32.3246C348.346 28.5445 347.503 24.4621 349.829 20.0892C350.363 19.0882 351.259 18.1618 352.12 17.259C353.817 15.4768 353.502 13.6476 351.2 12.5956C348.862 11.5239 346.198 11.9126 344.269 13.6476C340.626 16.9174 339.03 20.627 339 24.4935L339.006 24.4895Z" fill="#1F3451"/>
<path d="M403.005 24.4895C403.065 28.7408 404.534 32.4503 407.642 35.7672C411.979 40.3953 412.084 45.9654 408.022 50.7112C406.478 52.5169 406.708 54.2441 408.641 55.3824C410.545 56.5012 412.944 56.0733 414.623 54.3147C420.529 48.1322 420.464 38.8408 414.393 32.3246C410.87 28.5445 410.16 24.4621 412.119 20.0892C412.569 19.0882 413.324 18.1618 414.048 17.259C415.477 15.4768 415.212 13.6476 413.274 12.5956C411.305 11.5239 409.061 11.9126 407.437 13.6476C404.369 16.9174 403.025 20.627 403 24.4935L403.005 24.4895Z" fill="#1F3451"/>
<path d="M106.389 171.08V175.6H98.9489V199H93.3489V175.6H85.9089V171.08H106.389ZM131.075 187.44C131.075 188.24 131.022 188.96 130.915 189.6H114.715C114.848 191.2 115.408 192.453 116.395 193.36C117.382 194.267 118.595 194.72 120.035 194.72C122.115 194.72 123.595 193.827 124.475 192.04H130.515C129.875 194.173 128.648 195.933 126.835 197.32C125.022 198.68 122.795 199.36 120.155 199.36C118.022 199.36 116.102 198.893 114.395 197.96C112.715 197 111.395 195.653 110.435 193.92C109.502 192.187 109.035 190.187 109.035 187.92C109.035 185.627 109.502 183.613 110.435 181.88C111.368 180.147 112.675 178.813 114.355 177.88C116.035 176.947 117.968 176.48 120.155 176.48C122.262 176.48 124.142 176.933 125.795 177.84C127.475 178.747 128.768 180.04 129.675 181.72C130.608 183.373 131.075 185.28 131.075 187.44ZM125.275 185.84C125.248 184.4 124.728 183.253 123.715 182.4C122.702 181.52 121.462 181.08 119.995 181.08C118.608 181.08 117.435 181.507 116.475 182.36C115.542 183.187 114.968 184.347 114.755 185.84H125.275ZM133.722 187.84C133.722 185.6 134.162 183.613 135.042 181.88C135.949 180.147 137.162 178.813 138.682 177.88C140.229 176.947 141.949 176.48 143.842 176.48C145.496 176.48 146.936 176.813 148.162 177.48C149.416 178.147 150.416 178.987 151.162 180V176.84H156.802V199H151.162V195.76C150.442 196.8 149.442 197.667 148.162 198.36C146.909 199.027 145.456 199.36 143.802 199.36C141.936 199.36 140.229 198.88 138.682 197.92C137.162 196.96 135.949 195.613 135.042 193.88C134.162 192.12 133.722 190.107 133.722 187.84ZM151.162 187.92C151.162 186.56 150.896 185.4 150.362 184.44C149.829 183.453 149.109 182.707 148.202 182.2C147.296 181.667 146.322 181.4 145.282 181.4C144.242 181.4 143.282 181.653 142.402 182.16C141.522 182.667 140.802 183.413 140.242 184.4C139.709 185.36 139.442 186.507 139.442 187.84C139.442 189.173 139.709 190.347 140.242 191.36C140.802 192.347 141.522 193.107 142.402 193.64C143.309 194.173 144.269 194.44 145.282 194.44C146.322 194.44 147.296 194.187 148.202 193.68C149.109 193.147 149.829 192.4 150.362 191.44C150.896 190.453 151.162 189.28 151.162 187.92ZM188.923 193.68H177.803L175.963 199H170.083L180.123 171.04H186.643L196.683 199H190.763L188.923 193.68ZM187.403 189.2L183.363 177.52L179.323 189.2H187.403ZM198.996 187.84C198.996 185.6 199.436 183.613 200.316 181.88C201.222 180.147 202.449 178.813 203.996 177.88C205.542 176.947 207.262 176.48 209.156 176.48C210.596 176.48 211.969 176.8 213.276 177.44C214.582 178.053 215.622 178.88 216.396 179.92V169.4H222.076V199H216.396V195.72C215.702 196.813 214.729 197.693 213.476 198.36C212.222 199.027 210.769 199.36 209.116 199.36C207.249 199.36 205.542 198.88 203.996 197.92C202.449 196.96 201.222 195.613 200.316 193.88C199.436 192.12 198.996 190.107 198.996 187.84ZM216.436 187.92C216.436 186.56 216.169 185.4 215.636 184.44C215.102 183.453 214.382 182.707 213.476 182.2C212.569 181.667 211.596 181.4 210.556 181.4C209.516 181.4 208.556 181.653 207.676 182.16C206.796 182.667 206.076 183.413 205.516 184.4C204.982 185.36 204.716 186.507 204.716 187.84C204.716 189.173 204.982 190.347 205.516 191.36C206.076 192.347 206.796 193.107 207.676 193.64C208.582 194.173 209.542 194.44 210.556 194.44C211.596 194.44 212.569 194.187 213.476 193.68C214.382 193.147 215.102 192.4 215.636 191.44C216.169 190.453 216.436 189.28 216.436 187.92ZM236.785 193.84L242.385 176.84H248.345L240.145 199H233.345L225.185 176.84H231.185L236.785 193.84ZM272.09 187.44C272.09 188.24 272.037 188.96 271.93 189.6H255.73C255.864 191.2 256.424 192.453 257.41 193.36C258.397 194.267 259.61 194.72 261.05 194.72C263.13 194.72 264.61 193.827 265.49 192.04H271.53C270.89 194.173 269.664 195.933 267.85 197.32C266.037 198.68 263.81 199.36 261.17 199.36C259.037 199.36 257.117 198.893 255.41 197.96C253.73 197 252.41 195.653 251.45 193.92C250.517 192.187 250.05 190.187 250.05 187.92C250.05 185.627 250.517 183.613 251.45 181.88C252.384 180.147 253.69 178.813 255.37 177.88C257.05 176.947 258.984 176.48 261.17 176.48C263.277 176.48 265.157 176.933 266.81 177.84C268.49 178.747 269.784 180.04 270.69 181.72C271.624 183.373 272.09 185.28 272.09 187.44ZM266.29 185.84C266.264 184.4 265.744 183.253 264.73 182.4C263.717 181.52 262.477 181.08 261.01 181.08C259.624 181.08 258.45 181.507 257.49 182.36C256.557 183.187 255.984 184.347 255.77 185.84H266.29ZM288.458 176.52C291.098 176.52 293.231 177.36 294.858 179.04C296.485 180.693 297.298 183.013 297.298 186V199H291.698V186.76C291.698 185 291.258 183.653 290.378 182.72C289.498 181.76 288.298 181.28 286.778 181.28C285.231 181.28 284.005 181.76 283.098 182.72C282.218 183.653 281.778 185 281.778 186.76V199H276.178V176.84H281.778V179.6C282.525 178.64 283.471 177.893 284.618 177.36C285.791 176.8 287.071 176.52 288.458 176.52ZM309.143 181.44V192.16C309.143 192.907 309.317 193.453 309.663 193.8C310.037 194.12 310.65 194.28 311.503 194.28H314.103V199H310.583C305.863 199 303.503 196.707 303.503 192.12V181.44H300.863V176.84H303.503V171.36H309.143V176.84H314.103V181.44H309.143ZM326.302 185C326.302 182.253 326.916 179.8 328.142 177.64C329.396 175.453 331.089 173.76 333.222 172.56C335.382 171.333 337.796 170.72 340.462 170.72C343.582 170.72 346.316 171.52 348.662 173.12C351.009 174.72 352.649 176.933 353.582 179.76H347.142C346.502 178.427 345.596 177.427 344.422 176.76C343.276 176.093 341.942 175.76 340.422 175.76C338.796 175.76 337.342 176.147 336.062 176.92C334.809 177.667 333.822 178.733 333.102 180.12C332.409 181.507 332.062 183.133 332.062 185C332.062 186.84 332.409 188.467 333.102 189.88C333.822 191.267 334.809 192.347 336.062 193.12C337.342 193.867 338.796 194.24 340.422 194.24C341.942 194.24 343.276 193.907 344.422 193.24C345.596 192.547 346.502 191.533 347.142 190.2H353.582C352.649 193.053 351.009 195.28 348.662 196.88C346.342 198.453 343.609 199.24 340.462 199.24C337.796 199.24 335.382 198.64 333.222 197.44C331.089 196.213 329.396 194.52 328.142 192.36C326.916 190.2 326.302 187.747 326.302 185ZM356.925 187.84C356.925 185.6 357.365 183.613 358.245 181.88C359.152 180.147 360.365 178.813 361.885 177.88C363.432 176.947 365.152 176.48 367.045 176.48C368.699 176.48 370.139 176.813 371.365 177.48C372.619 178.147 373.619 178.987 374.365 180V176.84H380.005V199H374.365V195.76C373.645 196.8 372.645 197.667 371.365 198.36C370.112 199.027 368.659 199.36 367.005 199.36C365.139 199.36 363.432 198.88 361.885 197.92C360.365 196.96 359.152 195.613 358.245 193.88C357.365 192.12 356.925 190.107 356.925 187.84ZM374.365 187.92C374.365 186.56 374.099 185.4 373.565 184.44C373.032 183.453 372.312 182.707 371.405 182.2C370.499 181.667 369.525 181.4 368.485 181.4C367.445 181.4 366.485 181.653 365.605 182.16C364.725 182.667 364.005 183.413 363.445 184.4C362.912 185.36 362.645 186.507 362.645 187.84C362.645 189.173 362.912 190.347 363.445 191.36C364.005 192.347 364.725 193.107 365.605 193.64C366.512 194.173 367.472 194.44 368.485 194.44C369.525 194.44 370.499 194.187 371.405 193.68C372.312 193.147 373.032 192.4 373.565 191.44C374.099 190.453 374.365 189.28 374.365 187.92ZM391.075 169.4V199H385.475V169.4H391.075ZM417.208 187.44C417.208 188.24 417.154 188.96 417.048 189.6H400.848C400.981 191.2 401.541 192.453 402.528 193.36C403.514 194.267 404.728 194.72 406.168 194.72C408.248 194.72 409.728 193.827 410.608 192.04H416.648C416.008 194.173 414.781 195.933 412.968 197.32C411.154 198.68 408.928 199.36 406.288 199.36C404.154 199.36 402.234 198.893 400.528 197.96C398.848 197 397.528 195.653 396.568 193.92C395.634 192.187 395.168 190.187 395.168 187.92C395.168 185.627 395.634 183.613 396.568 181.88C397.501 180.147 398.808 178.813 400.488 177.88C402.168 176.947 404.101 176.48 406.288 176.48C408.394 176.48 410.274 176.933 411.928 177.84C413.608 178.747 414.901 180.04 415.808 181.72C416.741 183.373 417.208 185.28 417.208 187.44ZM411.408 185.84C411.381 184.4 410.861 183.253 409.848 182.4C408.834 181.52 407.594 181.08 406.128 181.08C404.741 181.08 403.568 181.507 402.608 182.36C401.674 183.187 401.101 184.347 400.888 185.84H411.408ZM433.575 176.52C436.215 176.52 438.348 177.36 439.975 179.04C441.602 180.693 442.415 183.013 442.415 186V199H436.815V186.76C436.815 185 436.375 183.653 435.495 182.72C434.615 181.76 433.415 181.28 431.895 181.28C430.348 181.28 429.122 181.76 428.215 182.72C427.335 183.653 426.895 185 426.895 186.76V199H421.295V176.84H426.895V179.6C427.642 178.64 428.588 177.893 429.735 177.36C430.908 176.8 432.188 176.52 433.575 176.52ZM446.3 187.84C446.3 185.6 446.74 183.613 447.62 181.88C448.527 180.147 449.754 178.813 451.3 177.88C452.847 176.947 454.567 176.48 456.46 176.48C457.9 176.48 459.274 176.8 460.58 177.44C461.887 178.053 462.927 178.88 463.7 179.92V169.4H469.38V199H463.7V195.72C463.007 196.813 462.034 197.693 460.78 198.36C459.527 199.027 458.074 199.36 456.42 199.36C454.554 199.36 452.847 198.88 451.3 197.92C449.754 196.96 448.527 195.613 447.62 193.88C446.74 192.12 446.3 190.107 446.3 187.84ZM463.74 187.92C463.74 186.56 463.474 185.4 462.94 184.44C462.407 183.453 461.687 182.707 460.78 182.2C459.874 181.667 458.9 181.4 457.86 181.4C456.82 181.4 455.86 181.653 454.98 182.16C454.1 182.667 453.38 183.413 452.82 184.4C452.287 185.36 452.02 186.507 452.02 187.84C452.02 189.173 452.287 190.347 452.82 191.36C453.38 192.347 454.1 193.107 454.98 193.64C455.887 194.173 456.847 194.44 457.86 194.44C458.9 194.44 459.874 194.187 460.78 193.68C461.687 193.147 462.407 192.4 462.94 191.44C463.474 190.453 463.74 189.28 463.74 187.92ZM473.41 187.84C473.41 185.6 473.85 183.613 474.73 181.88C475.637 180.147 476.85 178.813 478.37 177.88C479.917 176.947 481.637 176.48 483.53 176.48C485.183 176.48 486.623 176.813 487.85 177.48C489.103 178.147 490.103 178.987 490.85 180V176.84H496.49V199H490.85V195.76C490.13 196.8 489.13 197.667 487.85 198.36C486.597 199.027 485.143 199.36 483.49 199.36C481.623 199.36 479.917 198.88 478.37 197.92C476.85 196.96 475.637 195.613 474.73 193.88C473.85 192.12 473.41 190.107 473.41 187.84ZM490.85 187.92C490.85 186.56 490.583 185.4 490.05 184.44C489.517 183.453 488.797 182.707 487.89 182.2C486.983 181.667 486.01 181.4 484.97 181.4C483.93 181.4 482.97 181.653 482.09 182.16C481.21 182.667 480.49 183.413 479.93 184.4C479.397 185.36 479.13 186.507 479.13 187.84C479.13 189.173 479.397 190.347 479.93 191.36C480.49 192.347 481.21 193.107 482.09 193.64C482.997 194.173 483.957 194.44 484.97 194.44C486.01 194.44 486.983 194.187 487.89 193.68C488.797 193.147 489.517 192.4 490.05 191.44C490.583 190.453 490.85 189.28 490.85 187.92ZM507.559 180.28C508.279 179.107 509.213 178.187 510.359 177.52C511.533 176.853 512.866 176.52 514.359 176.52V182.4H512.879C511.119 182.4 509.786 182.813 508.879 183.64C507.999 184.467 507.559 185.907 507.559 187.96V199H501.959V176.84H507.559V180.28Z" fill="#A04063"/>
</svg>
