<svg width="35" height="32" viewBox="0 0 35 32" fill="none" xmlns="http://www.w3.org/2000/svg">
<path d="M35 18.8357C34.6758 20.354 33.8495 21.4982 32.6953 22.3265C31.8434 22.9383 30.9348 23.4728 30.008 23.9401C28.6 24.6491 27.1052 25.0893 25.5912 25.4433C25.5045 25.4634 25.4031 25.4824 25.342 25.5436C24.8671 26.021 24.3996 26.5083 23.8892 27.0358C24.0499 27.0358 24.1704 27.0358 24.2901 27.0358C27.0805 27.0358 29.871 27.0398 32.6606 27.0318C33.0377 27.0308 33.3354 27.1341 33.4906 27.5382C33.6495 27.9524 33.476 28.2583 33.2158 28.5401C32.7126 29.0856 32.2196 29.6412 31.7164 30.1867C30.6947 31.2928 29.4702 31.8494 28.032 31.8494C20.5271 31.8454 13.0213 31.8454 5.51638 31.8494C4.10287 31.8494 2.89299 31.3119 1.88035 30.2399C1.33887 29.6672 0.816565 29.0716 0.283305 28.4879C0.0367631 28.2182 -0.0801158 27.9103 0.0605041 27.5382C0.20569 27.1522 0.48693 27.0318 0.854916 27.0328C3.6454 27.0398 6.43588 27.0368 9.22546 27.0368H9.68932C9.53318 26.8874 9.43821 26.7951 9.34142 26.7049C6.64042 24.1717 4.98768 20.9858 4.52838 17.1088C4.37498 15.8122 4.3905 14.4854 4.39416 13.1727C4.3969 12.1218 5.27623 11.144 6.22769 11.0187C6.39662 10.9966 6.56829 10.9856 6.73904 10.9846C13.424 10.9826 20.1098 10.9816 26.7947 10.9846C28.0978 10.9846 28.9743 11.7778 29.1561 13.1236C29.1953 13.4184 29.1752 13.7233 29.1798 14.0241C29.1825 14.2107 29.1798 14.3972 29.1798 14.5747C29.7898 14.4554 30.3751 14.2768 30.9668 14.2417C31.5603 14.2067 32.183 14.2207 32.7537 14.3801C34.0239 14.7351 34.6859 15.747 34.926 17.1279C34.9425 17.2232 34.9744 17.3144 35 17.4077V18.8367V18.8357ZM16.787 12.5921C13.4386 12.5921 10.0902 12.5921 6.74178 12.5921C6.14917 12.5921 5.83688 12.8619 5.85058 13.4585C5.87888 14.696 5.84692 15.9506 6.02407 17.165C6.65503 21.4731 8.75794 24.6972 12.1776 26.8874C12.3164 26.9767 12.4962 27.0278 12.6569 27.0288C15.4018 27.0368 18.1466 27.0368 20.8914 27.0288C21.0421 27.0288 21.2092 26.9827 21.3398 26.9014C24.1969 25.1164 26.13 22.502 27.1435 19.0603C27.664 17.2934 27.7325 15.4742 27.6978 13.6401C27.6832 12.8468 27.4595 12.5901 26.729 12.5901C23.4144 12.5901 20.1007 12.5901 16.7861 12.5901L16.787 12.5921ZM2.5597 28.6654C3.41073 29.7796 4.45351 30.2439 5.71452 30.2419C13.0834 30.2308 20.4531 30.2368 27.822 30.2348C28.0722 30.2348 28.3242 30.2288 28.5717 30.1927C29.546 30.0513 30.3258 29.5329 30.9905 28.6644H2.5597V28.6654ZM26.8587 23.4808C27.6366 23.187 28.3279 22.9553 28.999 22.6675C30.2637 22.126 31.4845 21.4922 32.4962 20.4613C33.2505 19.6931 33.6376 18.7805 33.5089 17.6173C33.3993 16.6245 32.9802 16.0258 32.1009 15.8683C31.1083 15.6898 30.1605 15.9686 29.2373 16.3447C29.1679 16.3728 29.1168 16.5342 29.1049 16.6395C28.8648 18.8538 28.2512 20.9276 27.2084 22.844C27.1116 23.0225 27.0139 23.2 26.8587 23.4828V23.4808Z" fill="#A04063"/>
<path d="M18 6.39128C17.9901 5.42311 17.7987 4.68699 17.4128 4.0277C16.8847 3.1246 16.8735 2.002 17.3706 1.07303C17.5694 0.701442 17.5383 0.34083 17.2885 0.118975C17.0412 -0.100528 16.7579 -0.0119428 16.5491 0.348669C15.8377 1.57945 15.8004 3.41936 16.5379 4.6329C17.0922 5.54462 17.1444 6.922 16.6038 7.79374C16.4224 8.08694 16.492 8.46636 16.72 8.67254C16.9306 8.86304 17.227 8.81208 17.4029 8.53143C17.8235 7.86195 17.9969 7.08428 18 6.39128Z" fill="#A04063"/>
<path d="M11.0006 4.37872C11.0081 5.1215 11.1918 5.76963 11.5803 6.34918C12.1224 7.1578 12.1355 8.13102 11.6277 8.96021C11.4347 9.2757 11.4635 9.57748 11.7052 9.77638C11.9432 9.97184 12.243 9.89709 12.4528 9.58982C13.1911 8.50961 13.183 6.8862 12.4241 5.74768C11.9838 5.08721 11.8951 4.37392 12.1399 3.60988C12.1961 3.43499 12.2904 3.27313 12.381 3.11539C12.5596 2.80401 12.5265 2.4844 12.2842 2.30059C12.0381 2.11336 11.7576 2.18126 11.5547 2.4844C11.1711 3.05572 11.0031 3.70385 11 4.37941L11.0006 4.37872Z" fill="#A04063"/>
<path d="M21.0006 4.37872C21.0081 5.1215 21.1918 5.76963 21.5803 6.34918C22.1224 7.1578 22.1355 8.13102 21.6277 8.96021C21.4347 9.2757 21.4635 9.57748 21.7052 9.77638C21.9432 9.97184 22.243 9.89709 22.4528 9.58982C23.1911 8.50961 23.183 6.8862 22.4241 5.74768C21.9838 5.08721 21.8951 4.37392 22.1399 3.60988C22.1961 3.43499 22.2904 3.27313 22.381 3.11539C22.5596 2.80401 22.5265 2.4844 22.2842 2.30059C22.0381 2.11336 21.7576 2.18126 21.5547 2.4844C21.1711 3.05572 21.0031 3.70385 21 4.37941L21.0006 4.37872Z" fill="#A04063"/>
</svg>
