<svg width="151" height="81" viewBox="0 0 151 81" fill="none" xmlns="http://www.w3.org/2000/svg">
<rect x="10" y="67" width="126" height="8" fill="#C7D7ED"/>
<path d="M23 2H122L121 28.5L104 57.5L89.5 64.5H73.5H47.5L32 47.5L23 26.5V2Z" fill="#C7D7ED"/>
<path d="M41 24.0001C49.1465 16.2602 53.9821 16.2821 63 24.0001V42.0001H41V24.0001Z" fill="#A04063"/>
<line x1="51.75" y1="6" x2="51.75" y2="19" stroke="#1F3451" stroke-width="1.5"/>
<path d="M151 30.4837C149.602 36.3774 146.036 40.819 141.057 44.0344C137.381 46.409 133.462 48.4838 129.463 50.2979C123.388 53.05 116.94 54.7589 110.408 56.1331C110.034 56.2109 109.596 56.2849 109.332 56.5224C107.284 58.3753 105.267 60.2672 103.065 62.3148C103.758 62.3148 104.278 62.3148 104.794 62.3148C116.833 62.3148 128.872 62.3304 140.907 62.2992C142.534 62.2953 143.818 62.6963 144.488 64.265C145.174 65.8728 144.425 67.0601 143.302 68.1539C141.132 70.2716 139.004 72.4282 136.834 74.5458C132.426 78.8395 127.143 81 120.938 81C88.5598 80.9844 56.1775 80.9844 23.7992 81C17.701 81 12.4812 78.9135 8.11235 74.7521C5.77626 72.5294 3.52289 70.2171 1.22226 67.9515C0.158606 66.9043 -0.345643 65.7093 0.261032 64.265C0.887404 62.7663 2.10075 62.2992 3.68835 62.3031C15.7273 62.3304 27.7662 62.3187 39.8013 62.3187H41.8025C41.1288 61.7386 40.7191 61.3805 40.3016 61.0302C28.6487 51.1971 21.5183 38.8298 19.5367 23.7804C18.8749 18.7471 18.9419 13.597 18.9576 8.50136C18.9695 4.42176 22.7631 0.626323 26.868 0.139729C27.5968 0.0540881 28.3375 0.0112633 29.0741 0.0073705C57.9148 -0.000415003 86.7595 -0.00430776 115.6 0.0073705C121.222 0.0073705 125.004 3.08654 125.788 8.31061C125.957 9.45508 125.87 10.6385 125.89 11.8063C125.902 12.5304 125.89 13.2544 125.89 13.9434C128.522 13.4802 131.047 12.7873 133.599 12.651C136.16 12.5148 138.847 12.5693 141.309 13.1882C146.789 14.5663 149.645 18.4941 150.681 23.8544C150.752 24.2242 150.89 24.5784 151 24.9405V30.4876V30.4837ZM72.4238 6.24746C57.9779 6.24746 43.5319 6.24746 29.086 6.24746C26.5293 6.24746 25.182 7.29461 25.2411 9.6108C25.3632 14.4145 25.2253 19.2843 25.9896 23.9984C28.7117 40.7217 37.7843 53.2369 52.5375 61.7387C53.1363 62.0851 53.9123 62.2836 54.6057 62.2875C66.4477 62.3187 78.2896 62.3187 90.1316 62.2875C90.7816 62.2875 91.5025 62.1085 92.0659 61.7932C104.392 54.8641 112.732 44.7156 117.105 31.3557C119.35 24.4967 119.646 17.4352 119.496 10.3154C119.433 7.23622 118.468 6.23967 115.316 6.23967C101.016 6.23967 86.7201 6.23967 72.4199 6.23967L72.4238 6.24746ZM11.0433 68.6405C14.7149 72.9654 19.2137 74.7677 24.6541 74.7599C56.4454 74.7171 88.2407 74.7405 120.032 74.7327C121.111 74.7327 122.199 74.7093 123.266 74.5692C127.47 74.0203 130.834 72.0077 133.702 68.6366H11.0433V68.6405ZM115.876 48.515C119.232 47.3744 122.214 46.4752 125.11 45.3579C130.566 43.2559 135.833 40.7956 140.198 36.7939C143.452 33.812 145.122 30.2696 144.567 25.754C144.094 21.9002 142.286 19.5762 138.492 18.9651C134.21 18.2722 130.121 19.3544 126.138 20.8141C125.839 20.9231 125.618 21.5499 125.567 21.9586C124.531 30.5538 121.884 38.604 117.385 46.0431C116.967 46.736 116.546 47.425 115.876 48.5228V48.515Z" fill="#1F3451"/>
<line x1="51.75" y1="6" x2="51.75" y2="19" stroke="#1F3451" stroke-width="1.5"/>
<path d="M151 30.4837C149.602 36.3774 146.036 40.819 141.057 44.0344C137.381 46.409 133.462 48.4838 129.463 50.2979C123.388 53.05 116.94 54.7589 110.408 56.1331C110.034 56.2109 109.596 56.2849 109.332 56.5224C107.284 58.3753 105.267 60.2672 103.065 62.3148C103.758 62.3148 104.278 62.3148 104.794 62.3148C116.833 62.3148 128.872 62.3304 140.907 62.2992C142.534 62.2953 143.818 62.6963 144.488 64.265C145.174 65.8728 144.425 67.0601 143.302 68.1539C141.132 70.2716 139.004 72.4282 136.834 74.5458C132.426 78.8395 127.143 81 120.938 81C88.5598 80.9844 56.1775 80.9844 23.7992 81C17.701 81 12.4812 78.9135 8.11235 74.7521C5.77626 72.5294 3.52289 70.2171 1.22226 67.9515C0.158606 66.9043 -0.345643 65.7093 0.261032 64.265C0.887404 62.7663 2.10075 62.2992 3.68835 62.3031C15.7273 62.3304 27.7662 62.3187 39.8013 62.3187H41.8025C41.1288 61.7386 40.7191 61.3805 40.3016 61.0302C28.6487 51.1971 21.5183 38.8298 19.5367 23.7804C18.8749 18.7471 18.9419 13.597 18.9576 8.50136C18.9695 4.42176 22.7631 0.626323 26.868 0.139729C27.5968 0.0540881 28.3375 0.0112633 29.0741 0.0073705C57.9148 -0.000415003 86.7595 -0.00430776 115.6 0.0073705C121.222 0.0073705 125.004 3.08654 125.788 8.31061C125.957 9.45508 125.87 10.6385 125.89 11.8063C125.902 12.5304 125.89 13.2544 125.89 13.9434C128.522 13.4802 131.047 12.7873 133.599 12.651C136.16 12.5148 138.847 12.5693 141.309 13.1882C146.789 14.5663 149.645 18.4941 150.681 23.8544C150.752 24.2242 150.89 24.5784 151 24.9405V30.4876V30.4837ZM72.4238 6.24746C57.9779 6.24746 43.5319 6.24746 29.086 6.24746C26.5293 6.24746 25.182 7.29461 25.2411 9.6108C25.3632 14.4145 25.2253 19.2843 25.9896 23.9984C28.7117 40.7217 37.7843 53.2369 52.5375 61.7387C53.1363 62.0851 53.9123 62.2836 54.6057 62.2875C66.4477 62.3187 78.2896 62.3187 90.1316 62.2875C90.7816 62.2875 91.5025 62.1085 92.0659 61.7932C104.392 54.8641 112.732 44.7156 117.105 31.3557C119.35 24.4967 119.646 17.4352 119.496 10.3154C119.433 7.23622 118.468 6.23967 115.316 6.23967C101.016 6.23967 86.7201 6.23967 72.4199 6.23967L72.4238 6.24746ZM11.0433 68.6405C14.7149 72.9654 19.2137 74.7677 24.6541 74.7599C56.4454 74.7171 88.2407 74.7405 120.032 74.7327C121.111 74.7327 122.199 74.7093 123.266 74.5692C127.47 74.0203 130.834 72.0077 133.702 68.6366H11.0433V68.6405ZM115.876 48.515C119.232 47.3744 122.214 46.4752 125.11 45.3579C130.566 43.2559 135.833 40.7956 140.198 36.7939C143.452 33.812 145.122 30.2696 144.567 25.754C144.094 21.9002 142.286 19.5762 138.492 18.9651C134.21 18.2722 130.121 19.3544 126.138 20.8141C125.839 20.9231 125.618 21.5499 125.567 21.9586C124.531 30.5538 121.884 38.604 117.385 46.0431C116.967 46.736 116.546 47.425 115.876 48.5228V48.515Z" fill="#1F3451"/>
<path d="M41.3681 24.6463C44.1412 22.3426 46.1911 20.6657 47.8996 19.5584C49.6014 18.4553 50.8438 18 52 18C53.1562 18 54.3986 18.4554 56.1004 19.5584C57.8089 20.6658 59.8588 22.3426 62.6319 24.6463C62.8642 24.8393 63 25.1292 63 25.4212V41C63 41.5523 62.5523 42 62 42H42C41.4477 42 41 41.5523 41 41V25.4212C41 25.1292 41.1358 24.8393 41.3681 24.6463Z" stroke="#1F3451" stroke-width="2"/>
</svg>
