<svg width="320" height="254" viewBox="0 0 320 254" fill="none" xmlns="http://www.w3.org/2000/svg">
<rect width="320" height="254" rx="4" fill="#1F3451"/>
<path d="M85.7415 52.95C85.7415 53.8833 85.5165 54.7583 85.0665 55.575C84.6332 56.3917 83.9415 57.05 82.9915 57.55C82.0582 58.05 80.8748 58.3 79.4415 58.3H76.5165V65H73.0165V47.55H79.4415C80.7915 47.55 81.9415 47.7833 82.8915 48.25C83.8415 48.7167 84.5498 49.3583 85.0165 50.175C85.4998 50.9917 85.7415 51.9167 85.7415 52.95ZM79.2915 55.475C80.2582 55.475 80.9748 55.2583 81.4415 54.825C81.9082 54.375 82.1415 53.75 82.1415 52.95C82.1415 51.25 81.1915 50.4 79.2915 50.4H76.5165V55.475H79.2915ZM90.0015 49.5C89.3848 49.5 88.8681 49.3083 88.4515 48.925C88.0515 48.525 87.8515 48.0333 87.8515 47.45C87.8515 46.8667 88.0515 46.3833 88.4515 46C88.8681 45.6 89.3848 45.4 90.0015 45.4C90.6181 45.4 91.1265 45.6 91.5265 46C91.9431 46.3833 92.1515 46.8667 92.1515 47.45C92.1515 48.0333 91.9431 48.525 91.5265 48.925C91.1265 49.3083 90.6181 49.5 90.0015 49.5ZM91.7265 51.15V65H88.2265V51.15H91.7265ZM94.2845 58.075C94.2845 56.6417 94.5761 55.3917 95.1595 54.325C95.7428 53.2417 96.5511 52.4083 97.5845 51.825C98.6178 51.225 99.8011 50.925 101.134 50.925C102.851 50.925 104.268 51.3583 105.384 52.225C106.518 53.075 107.276 54.275 107.659 55.825H103.884C103.684 55.225 103.343 54.7583 102.859 54.425C102.393 54.075 101.809 53.9 101.109 53.9C100.109 53.9 99.3178 54.2667 98.7345 55C98.1511 55.7167 97.8595 56.7417 97.8595 58.075C97.8595 59.3917 98.1511 60.4167 98.7345 61.15C99.3178 61.8667 100.109 62.225 101.109 62.225C102.526 62.225 103.451 61.5917 103.884 60.325H107.659C107.276 61.825 106.518 63.0167 105.384 63.9C104.251 64.7833 102.834 65.225 101.134 65.225C99.8011 65.225 98.6178 64.9333 97.5845 64.35C96.5511 63.75 95.7428 62.9167 95.1595 61.85C94.5761 60.7667 94.2845 59.5083 94.2845 58.075ZM115.281 58.025C115.281 56.625 115.556 55.3833 116.106 54.3C116.672 53.2167 117.431 52.3833 118.381 51.8C119.347 51.2167 120.422 50.925 121.606 50.925C122.639 50.925 123.539 51.1333 124.306 51.55C125.089 51.9667 125.714 52.4917 126.181 53.125V51.15H129.706V65H126.181V62.975C125.731 63.625 125.106 64.1667 124.306 64.6C123.522 65.0167 122.614 65.225 121.581 65.225C120.414 65.225 119.347 64.925 118.381 64.325C117.431 63.725 116.672 62.8833 116.106 61.8C115.556 60.7 115.281 59.4417 115.281 58.025ZM126.181 58.075C126.181 57.225 126.014 56.5 125.681 55.9C125.347 55.2833 124.897 54.8167 124.331 54.5C123.764 54.1667 123.156 54 122.506 54C121.856 54 121.256 54.1583 120.706 54.475C120.156 54.7917 119.706 55.2583 119.356 55.875C119.022 56.475 118.856 57.1917 118.856 58.025C118.856 58.8583 119.022 59.5917 119.356 60.225C119.706 60.8417 120.156 61.3167 120.706 61.65C121.272 61.9833 121.872 62.15 122.506 62.15C123.156 62.15 123.764 61.9917 124.331 61.675C124.897 61.3417 125.347 60.875 125.681 60.275C126.014 59.6583 126.181 58.925 126.181 58.075ZM138.181 58.025C138.181 56.625 138.456 55.3833 139.006 54.3C139.573 53.2167 140.339 52.3833 141.306 51.8C142.273 51.2167 143.348 50.925 144.531 50.925C145.431 50.925 146.289 51.125 147.106 51.525C147.923 51.9083 148.573 52.425 149.056 53.075V46.5H152.606V65H149.056V62.95C148.623 63.6333 148.014 64.1833 147.231 64.6C146.448 65.0167 145.539 65.225 144.506 65.225C143.339 65.225 142.273 64.925 141.306 64.325C140.339 63.725 139.573 62.8833 139.006 61.8C138.456 60.7 138.181 59.4417 138.181 58.025ZM149.081 58.075C149.081 57.225 148.914 56.5 148.581 55.9C148.248 55.2833 147.798 54.8167 147.231 54.5C146.664 54.1667 146.056 54 145.406 54C144.756 54 144.156 54.1583 143.606 54.475C143.056 54.7917 142.606 55.2583 142.256 55.875C141.923 56.475 141.756 57.1917 141.756 58.025C141.756 58.8583 141.923 59.5917 142.256 60.225C142.606 60.8417 143.056 61.3167 143.606 61.65C144.173 61.9833 144.773 62.15 145.406 62.15C146.056 62.15 146.664 61.9917 147.231 61.675C147.798 61.3417 148.248 60.875 148.581 60.275C148.914 59.6583 149.081 58.925 149.081 58.075ZM155.124 58.025C155.124 56.625 155.399 55.3833 155.949 54.3C156.516 53.2167 157.274 52.3833 158.224 51.8C159.191 51.2167 160.266 50.925 161.449 50.925C162.483 50.925 163.383 51.1333 164.149 51.55C164.933 51.9667 165.558 52.4917 166.024 53.125V51.15H169.549V65H166.024V62.975C165.574 63.625 164.949 64.1667 164.149 64.6C163.366 65.0167 162.458 65.225 161.424 65.225C160.258 65.225 159.191 64.925 158.224 64.325C157.274 63.725 156.516 62.8833 155.949 61.8C155.399 60.7 155.124 59.4417 155.124 58.025ZM166.024 58.075C166.024 57.225 165.858 56.5 165.524 55.9C165.191 55.2833 164.741 54.8167 164.174 54.5C163.608 54.1667 162.999 54 162.349 54C161.699 54 161.099 54.1583 160.549 54.475C159.999 54.7917 159.549 55.2583 159.199 55.875C158.866 56.475 158.699 57.1917 158.699 58.025C158.699 58.8583 158.866 59.5917 159.199 60.225C159.549 60.8417 159.999 61.3167 160.549 61.65C161.116 61.9833 161.716 62.15 162.349 62.15C162.999 62.15 163.608 61.9917 164.174 61.675C164.741 61.3417 165.191 60.875 165.524 60.275C165.858 59.6583 166.024 58.925 166.024 58.075ZM186.218 51.15L177.643 71.55H173.918L176.918 64.65L171.368 51.15H175.293L178.868 60.825L182.493 51.15H186.218ZM193.161 58.025C193.161 56.625 193.436 55.3833 193.986 54.3C194.553 53.2167 195.311 52.3833 196.261 51.8C197.228 51.2167 198.303 50.925 199.486 50.925C200.52 50.925 201.42 51.1333 202.186 51.55C202.97 51.9667 203.595 52.4917 204.061 53.125V51.15H207.586V65H204.061V62.975C203.611 63.625 202.986 64.1667 202.186 64.6C201.403 65.0167 200.495 65.225 199.461 65.225C198.295 65.225 197.228 64.925 196.261 64.325C195.311 63.725 194.553 62.8833 193.986 61.8C193.436 60.7 193.161 59.4417 193.161 58.025ZM204.061 58.075C204.061 57.225 203.895 56.5 203.561 55.9C203.228 55.2833 202.778 54.8167 202.211 54.5C201.645 54.1667 201.036 54 200.386 54C199.736 54 199.136 54.1583 198.586 54.475C198.036 54.7917 197.586 55.2583 197.236 55.875C196.903 56.475 196.736 57.1917 196.736 58.025C196.736 58.8583 196.903 59.5917 197.236 60.225C197.586 60.8417 198.036 61.3167 198.586 61.65C199.153 61.9833 199.753 62.15 200.386 62.15C201.036 62.15 201.645 61.9917 202.211 61.675C202.778 61.3417 203.228 60.875 203.561 60.275C203.895 59.6583 204.061 58.925 204.061 58.075ZM218.68 50.95C220.33 50.95 221.663 51.475 222.68 52.525C223.696 53.5583 224.205 55.0083 224.205 56.875V65H220.705V57.35C220.705 56.25 220.43 55.4083 219.88 54.825C219.33 54.225 218.58 53.925 217.63 53.925C216.663 53.925 215.896 54.225 215.33 54.825C214.78 55.4083 214.505 56.25 214.505 57.35V65H211.005V51.15H214.505V52.875C214.971 52.275 215.563 51.8083 216.28 51.475C217.013 51.125 217.813 50.95 218.68 50.95ZM226.633 58.025C226.633 56.625 226.908 55.3833 227.458 54.3C228.025 53.2167 228.791 52.3833 229.758 51.8C230.725 51.2167 231.8 50.925 232.983 50.925C233.883 50.925 234.741 51.125 235.558 51.525C236.375 51.9083 237.025 52.425 237.508 53.075V46.5H241.058V65H237.508V62.95C237.075 63.6333 236.466 64.1833 235.683 64.6C234.9 65.0167 233.991 65.225 232.958 65.225C231.791 65.225 230.725 64.925 229.758 64.325C228.791 63.725 228.025 62.8833 227.458 61.8C226.908 60.7 226.633 59.4417 226.633 58.025ZM237.533 58.075C237.533 57.225 237.366 56.5 237.033 55.9C236.7 55.2833 236.25 54.8167 235.683 54.5C235.116 54.1667 234.508 54 233.858 54C233.208 54 232.608 54.1583 232.058 54.475C231.508 54.7917 231.058 55.2583 230.708 55.875C230.375 56.475 230.208 57.1917 230.208 58.025C230.208 58.8583 230.375 59.5917 230.708 60.225C231.058 60.8417 231.508 61.3167 232.058 61.65C232.625 61.9833 233.225 62.15 233.858 62.15C234.508 62.15 235.116 61.9917 235.683 61.675C236.25 61.3417 236.7 60.875 237.033 60.275C237.366 59.6583 237.533 58.925 237.533 58.075ZM31.3017 91.15C31.7517 90.5167 32.3683 89.9917 33.1517 89.575C33.9517 89.1417 34.86 88.925 35.8767 88.925C37.06 88.925 38.1267 89.2167 39.0767 89.8C40.0433 90.3833 40.8017 91.2167 41.3517 92.3C41.9183 93.3667 42.2017 94.6083 42.2017 96.025C42.2017 97.4417 41.9183 98.7 41.3517 99.8C40.8017 100.883 40.0433 101.725 39.0767 102.325C38.1267 102.925 37.06 103.225 35.8767 103.225C34.86 103.225 33.96 103.017 33.1767 102.6C32.41 102.183 31.785 101.658 31.3017 101.025V109.6H27.8017V89.15H31.3017V91.15ZM38.6267 96.025C38.6267 95.1917 38.4517 94.475 38.1017 93.875C37.7683 93.2583 37.3183 92.7917 36.7517 92.475C36.2017 92.1583 35.6017 92 34.9517 92C34.3183 92 33.7183 92.1667 33.1517 92.5C32.6017 92.8167 32.1517 93.2833 31.8017 93.9C31.4683 94.5167 31.3017 95.2417 31.3017 96.075C31.3017 96.9083 31.4683 97.6333 31.8017 98.25C32.1517 98.8667 32.6017 99.3417 33.1517 99.675C33.7183 99.9917 34.3183 100.15 34.9517 100.15C35.6017 100.15 36.2017 99.9833 36.7517 99.65C37.3183 99.3167 37.7683 98.8417 38.1017 98.225C38.4517 97.6083 38.6267 96.875 38.6267 96.025ZM50.895 103.225C49.5617 103.225 48.3617 102.933 47.295 102.35C46.2284 101.75 45.3867 100.908 44.77 99.825C44.17 98.7417 43.87 97.4917 43.87 96.075C43.87 94.6583 44.1784 93.4083 44.795 92.325C45.4284 91.2417 46.2867 90.4083 47.37 89.825C48.4534 89.225 49.6617 88.925 50.995 88.925C52.3284 88.925 53.5367 89.225 54.62 89.825C55.7034 90.4083 56.5534 91.2417 57.17 92.325C57.8034 93.4083 58.12 94.6583 58.12 96.075C58.12 97.4917 57.795 98.7417 57.145 99.825C56.5117 100.908 55.645 101.75 54.545 102.35C53.4617 102.933 52.245 103.225 50.895 103.225ZM50.895 100.175C51.5284 100.175 52.12 100.025 52.67 99.725C53.2367 99.4083 53.6867 98.9417 54.02 98.325C54.3534 97.7083 54.52 96.9583 54.52 96.075C54.52 94.7583 54.17 93.75 53.47 93.05C52.7867 92.3333 51.945 91.975 50.945 91.975C49.945 91.975 49.1034 92.3333 48.42 93.05C47.7534 93.75 47.42 94.7583 47.42 96.075C47.42 97.3917 47.745 98.4083 48.395 99.125C49.0617 99.825 49.895 100.175 50.895 100.175ZM65.9874 103.225C64.8541 103.225 63.8374 103.025 62.9374 102.625C62.0374 102.208 61.3207 101.65 60.7874 100.95C60.2707 100.25 59.9874 99.475 59.9374 98.625H63.4624C63.5291 99.1583 63.7874 99.6 64.2374 99.95C64.7041 100.3 65.2791 100.475 65.9624 100.475C66.6291 100.475 67.1457 100.342 67.5124 100.075C67.8957 99.8083 68.0874 99.4667 68.0874 99.05C68.0874 98.6 67.8541 98.2667 67.3874 98.05C66.9374 97.8167 66.2124 97.5667 65.2124 97.3C64.1791 97.05 63.3291 96.7917 62.6624 96.525C62.0124 96.2583 61.4457 95.85 60.9624 95.3C60.4957 94.75 60.2624 94.0083 60.2624 93.075C60.2624 92.3083 60.4791 91.6083 60.9124 90.975C61.3624 90.3417 61.9957 89.8417 62.8124 89.475C63.6457 89.1083 64.6207 88.925 65.7374 88.925C67.3874 88.925 68.7041 89.3417 69.6874 90.175C70.6707 90.9917 71.2124 92.1 71.3124 93.5H67.9624C67.9124 92.95 67.6791 92.5167 67.2624 92.2C66.8624 91.8667 66.3207 91.7 65.6374 91.7C65.0041 91.7 64.5124 91.8167 64.1624 92.05C63.8291 92.2833 63.6624 92.6083 63.6624 93.025C63.6624 93.4917 63.8957 93.85 64.3624 94.1C64.8291 94.3333 65.5541 94.575 66.5374 94.825C67.5374 95.075 68.3624 95.3333 69.0124 95.6C69.6624 95.8667 70.2207 96.2833 70.6874 96.85C71.1707 97.4 71.4207 98.1333 71.4374 99.05C71.4374 99.85 71.2124 100.567 70.7624 101.2C70.3291 101.833 69.6957 102.333 68.8624 102.7C68.0457 103.05 67.0874 103.225 65.9874 103.225ZM78.3854 92.025V98.725C78.3854 99.1917 78.4938 99.5333 78.7104 99.75C78.9438 99.95 79.3271 100.05 79.8604 100.05H81.4854V103H79.2854C76.3354 103 74.8604 101.567 74.8604 98.7V92.025H73.2104V89.15H74.8604V85.725H78.3854V89.15H81.4854V92.025H78.3854ZM95.2599 103.225C94.1265 103.225 93.1099 103.025 92.2099 102.625C91.3099 102.208 90.5932 101.65 90.0599 100.95C89.5432 100.25 89.2599 99.475 89.2099 98.625H92.7349C92.8015 99.1583 93.0599 99.6 93.5099 99.95C93.9765 100.3 94.5515 100.475 95.2349 100.475C95.9015 100.475 96.4182 100.342 96.7849 100.075C97.1682 99.8083 97.3599 99.4667 97.3599 99.05C97.3599 98.6 97.1265 98.2667 96.6599 98.05C96.2099 97.8167 95.4849 97.5667 94.4849 97.3C93.4515 97.05 92.6015 96.7917 91.9349 96.525C91.2849 96.2583 90.7182 95.85 90.2349 95.3C89.7682 94.75 89.5349 94.0083 89.5349 93.075C89.5349 92.3083 89.7515 91.6083 90.1849 90.975C90.6349 90.3417 91.2682 89.8417 92.0849 89.475C92.9182 89.1083 93.8932 88.925 95.0099 88.925C96.6599 88.925 97.9765 89.3417 98.9599 90.175C99.9432 90.9917 100.485 92.1 100.585 93.5H97.2349C97.1849 92.95 96.9515 92.5167 96.5349 92.2C96.1349 91.8667 95.5932 91.7 94.9099 91.7C94.2765 91.7 93.7849 91.8167 93.4349 92.05C93.1015 92.2833 92.9349 92.6083 92.9349 93.025C92.9349 93.4917 93.1682 93.85 93.6349 94.1C94.1015 94.3333 94.8265 94.575 95.8099 94.825C96.8099 95.075 97.6349 95.3333 98.2849 95.6C98.9349 95.8667 99.4932 96.2833 99.9599 96.85C100.443 97.4 100.693 98.1333 100.71 99.05C100.71 99.85 100.485 100.567 100.035 101.2C99.6015 101.833 98.9682 102.333 98.1349 102.7C97.3182 103.05 96.3599 103.225 95.2599 103.225ZM109.733 103.225C108.4 103.225 107.2 102.933 106.133 102.35C105.066 101.75 104.225 100.908 103.608 99.825C103.008 98.7417 102.708 97.4917 102.708 96.075C102.708 94.6583 103.016 93.4083 103.633 92.325C104.266 91.2417 105.125 90.4083 106.208 89.825C107.291 89.225 108.5 88.925 109.833 88.925C111.166 88.925 112.375 89.225 113.458 89.825C114.541 90.4083 115.391 91.2417 116.008 92.325C116.641 93.4083 116.958 94.6583 116.958 96.075C116.958 97.4917 116.633 98.7417 115.983 99.825C115.35 100.908 114.483 101.75 113.383 102.35C112.3 102.933 111.083 103.225 109.733 103.225ZM109.733 100.175C110.366 100.175 110.958 100.025 111.508 99.725C112.075 99.4083 112.525 98.9417 112.858 98.325C113.191 97.7083 113.358 96.9583 113.358 96.075C113.358 94.7583 113.008 93.75 112.308 93.05C111.625 92.3333 110.783 91.975 109.783 91.975C108.783 91.975 107.941 92.3333 107.258 93.05C106.591 93.75 106.258 94.7583 106.258 96.075C106.258 97.3917 106.583 98.4083 107.233 99.125C107.9 99.825 108.733 100.175 109.733 100.175ZM136.725 88.95C138.425 88.95 139.792 89.475 140.825 90.525C141.875 91.5583 142.4 93.0083 142.4 94.875V103H138.9V95.35C138.9 94.2667 138.625 93.4417 138.075 92.875C137.525 92.2917 136.775 92 135.825 92C134.875 92 134.117 92.2917 133.55 92.875C133 93.4417 132.725 94.2667 132.725 95.35V103H129.225V95.35C129.225 94.2667 128.95 93.4417 128.4 92.875C127.85 92.2917 127.1 92 126.15 92C125.184 92 124.417 92.2917 123.85 92.875C123.3 93.4417 123.025 94.2667 123.025 95.35V103H119.525V89.15H123.025V90.825C123.475 90.2417 124.05 89.7833 124.75 89.45C125.467 89.1167 126.25 88.95 127.1 88.95C128.184 88.95 129.15 89.1833 130 89.65C130.85 90.1 131.509 90.75 131.975 91.6C132.425 90.8 133.075 90.1583 133.925 89.675C134.792 89.1917 135.725 88.95 136.725 88.95ZM158.597 95.775C158.597 96.275 158.563 96.725 158.497 97.125H148.372C148.455 98.125 148.805 98.9083 149.422 99.475C150.038 100.042 150.797 100.325 151.697 100.325C152.997 100.325 153.922 99.7667 154.472 98.65H158.247C157.847 99.9833 157.08 101.083 155.947 101.95C154.813 102.8 153.422 103.225 151.772 103.225C150.438 103.225 149.238 102.933 148.172 102.35C147.122 101.75 146.297 100.908 145.697 99.825C145.113 98.7417 144.822 97.4917 144.822 96.075C144.822 94.6417 145.113 93.3833 145.697 92.3C146.28 91.2167 147.097 90.3833 148.147 89.8C149.197 89.2167 150.405 88.925 151.772 88.925C153.088 88.925 154.263 89.2083 155.297 89.775C156.347 90.3417 157.155 91.15 157.722 92.2C158.305 93.2333 158.597 94.425 158.597 95.775ZM154.972 94.775C154.955 93.875 154.63 93.1583 153.997 92.625C153.363 92.075 152.588 91.8 151.672 91.8C150.805 91.8 150.072 92.0667 149.472 92.6C148.888 93.1167 148.53 93.8417 148.397 94.775H154.972ZM165.226 92.025V98.725C165.226 99.1917 165.335 99.5333 165.551 99.75C165.785 99.95 166.168 100.05 166.701 100.05H168.326V103H166.126C163.176 103 161.701 101.567 161.701 98.7V92.025H160.051V89.15H161.701V85.725H165.226V89.15H168.326V92.025H165.226ZM178.644 88.95C179.694 88.95 180.627 89.1833 181.444 89.65C182.26 90.1 182.894 90.775 183.344 91.675C183.81 92.5583 184.044 93.625 184.044 94.875V103H180.544V95.35C180.544 94.25 180.269 93.4083 179.719 92.825C179.169 92.225 178.419 91.925 177.469 91.925C176.502 91.925 175.735 92.225 175.169 92.825C174.619 93.4083 174.344 94.25 174.344 95.35V103H170.844V84.5H174.344V90.875C174.794 90.275 175.394 89.8083 176.144 89.475C176.894 89.125 177.727 88.95 178.644 88.95ZM189.147 87.5C188.53 87.5 188.014 87.3083 187.597 86.925C187.197 86.525 186.997 86.0333 186.997 85.45C186.997 84.8667 187.197 84.3833 187.597 84C188.014 83.6 188.53 83.4 189.147 83.4C189.764 83.4 190.272 83.6 190.672 84C191.089 84.3833 191.297 84.8667 191.297 85.45C191.297 86.0333 191.089 86.525 190.672 86.925C190.272 87.3083 189.764 87.5 189.147 87.5ZM190.872 89.15V103H187.372V89.15H190.872ZM202.005 88.95C203.655 88.95 204.988 89.475 206.005 90.525C207.022 91.5583 207.53 93.0083 207.53 94.875V103H204.03V95.35C204.03 94.25 203.755 93.4083 203.205 92.825C202.655 92.225 201.905 91.925 200.955 91.925C199.988 91.925 199.222 92.225 198.655 92.825C198.105 93.4083 197.83 94.25 197.83 95.35V103H194.33V89.15H197.83V90.875C198.297 90.275 198.888 89.8083 199.605 89.475C200.338 89.125 201.138 88.95 202.005 88.95ZM216.283 88.925C217.317 88.925 218.225 89.1333 219.008 89.55C219.792 89.95 220.408 90.475 220.858 91.125V89.15H224.383V103.1C224.383 104.383 224.125 105.525 223.608 106.525C223.092 107.542 222.317 108.342 221.283 108.925C220.25 109.525 219 109.825 217.533 109.825C215.567 109.825 213.95 109.367 212.683 108.45C211.433 107.533 210.725 106.283 210.558 104.7H214.033C214.217 105.333 214.608 105.833 215.208 106.2C215.825 106.583 216.567 106.775 217.433 106.775C218.45 106.775 219.275 106.467 219.908 105.85C220.542 105.25 220.858 104.333 220.858 103.1V100.95C220.408 101.6 219.783 102.142 218.983 102.575C218.2 103.008 217.3 103.225 216.283 103.225C215.117 103.225 214.05 102.925 213.083 102.325C212.117 101.725 211.35 100.883 210.783 99.8C210.233 98.7 209.958 97.4417 209.958 96.025C209.958 94.625 210.233 93.3833 210.783 92.3C211.35 91.2167 212.108 90.3833 213.058 89.8C214.025 89.2167 215.1 88.925 216.283 88.925ZM220.858 96.075C220.858 95.225 220.692 94.5 220.358 93.9C220.025 93.2833 219.575 92.8167 219.008 92.5C218.442 92.1667 217.833 92 217.183 92C216.533 92 215.933 92.1583 215.383 92.475C214.833 92.7917 214.383 93.2583 214.033 93.875C213.7 94.475 213.533 95.1917 213.533 96.025C213.533 96.8583 213.7 97.5917 214.033 98.225C214.383 98.8417 214.833 99.3167 215.383 99.65C215.95 99.9833 216.55 100.15 217.183 100.15C217.833 100.15 218.442 99.9917 219.008 99.675C219.575 99.3417 220.025 98.875 220.358 98.275C220.692 97.6583 220.858 96.925 220.858 96.075ZM241.434 88.95C243.084 88.95 244.417 89.475 245.434 90.525C246.45 91.5583 246.959 93.0083 246.959 94.875V103H243.459V95.35C243.459 94.25 243.184 93.4083 242.634 92.825C242.084 92.225 241.334 91.925 240.384 91.925C239.417 91.925 238.65 92.225 238.084 92.825C237.534 93.4083 237.259 94.25 237.259 95.35V103H233.759V89.15H237.259V90.875C237.725 90.275 238.317 89.8083 239.034 89.475C239.767 89.125 240.567 88.95 241.434 88.95ZM263.162 95.775C263.162 96.275 263.129 96.725 263.062 97.125H252.937C253.02 98.125 253.37 98.9083 253.987 99.475C254.604 100.042 255.362 100.325 256.262 100.325C257.562 100.325 258.487 99.7667 259.037 98.65H262.812C262.412 99.9833 261.645 101.083 260.512 101.95C259.379 102.8 257.987 103.225 256.337 103.225C255.004 103.225 253.804 102.933 252.737 102.35C251.687 101.75 250.862 100.908 250.262 99.825C249.679 98.7417 249.387 97.4917 249.387 96.075C249.387 94.6417 249.679 93.3833 250.262 92.3C250.845 91.2167 251.662 90.3833 252.712 89.8C253.762 89.2167 254.97 88.925 256.337 88.925C257.654 88.925 258.829 89.2083 259.862 89.775C260.912 90.3417 261.72 91.15 262.287 92.2C262.87 93.2333 263.162 94.425 263.162 95.775ZM259.537 94.775C259.52 93.875 259.195 93.1583 258.562 92.625C257.929 92.075 257.154 91.8 256.237 91.8C255.37 91.8 254.637 92.0667 254.037 92.6C253.454 93.1167 253.095 93.8417 252.962 94.775H259.537ZM284.917 89.15L280.867 103H277.092L274.567 93.325L272.042 103H268.242L264.167 89.15H267.717L270.167 99.7L272.817 89.15H276.517L279.117 99.675L281.567 89.15H284.917ZM291.335 85.25L290.935 97.325H287.985L287.56 85.25H291.335ZM289.535 103.175C288.902 103.175 288.377 102.983 287.96 102.6C287.56 102.2 287.36 101.708 287.36 101.125C287.36 100.542 287.56 100.058 287.96 99.675C288.377 99.275 288.902 99.075 289.535 99.075C290.152 99.075 290.66 99.275 291.06 99.675C291.46 100.058 291.66 100.542 291.66 101.125C291.66 101.708 291.46 102.2 291.06 102.6C290.66 102.983 290.152 103.175 289.535 103.175Z" fill="white"/>
<path fill-rule="evenodd" clip-rule="evenodd" d="M109 159.716H57V201H109V159.716ZM57 154.716H52V159.716V201V206H57H109H114V201V159.716V154.716H109H98.3368V158.543H92.4632V154.716H74.8421V158.543H68.9684V154.716H57Z" fill="white"/>
<rect x="70" y="146" width="4" height="7" fill="white"/>
<rect x="55" y="165" width="48" height="4" fill="white"/>
<rect x="93" y="146" width="5" height="7" fill="white"/>
<path d="M88.5306 177.8H80.4306V182.075C80.7806 181.642 81.2806 181.292 81.9306 181.025C82.5806 180.742 83.2722 180.6 84.0056 180.6C85.3389 180.6 86.4306 180.892 87.2806 181.475C88.1306 182.058 88.7472 182.808 89.1306 183.725C89.5139 184.625 89.7056 185.592 89.7056 186.625C89.7056 188.542 89.1556 190.083 88.0556 191.25C86.9722 192.417 85.4222 193 83.4056 193C81.5056 193 79.9889 192.525 78.8556 191.575C77.7222 190.625 77.0806 189.383 76.9306 187.85H80.3306C80.4806 188.517 80.8139 189.05 81.3306 189.45C81.8639 189.85 82.5389 190.05 83.3556 190.05C84.3389 190.05 85.0806 189.742 85.5806 189.125C86.0806 188.508 86.3306 187.692 86.3306 186.675C86.3306 185.642 86.0722 184.858 85.5556 184.325C85.0556 183.775 84.3139 183.5 83.3306 183.5C82.6306 183.5 82.0472 183.675 81.5806 184.025C81.1139 184.375 80.7806 184.842 80.5806 185.425H77.2306V174.725H88.5306V177.8Z" fill="white"/>
<path fill-rule="evenodd" clip-rule="evenodd" d="M237.673 188.601L194.152 160.142L171.557 194.693L215.078 223.153L237.673 188.601ZM196.888 155.957L192.704 153.22L189.967 157.405L167.372 191.957L164.636 196.142L168.821 198.878L212.341 227.338L216.526 230.074L219.262 225.89L241.857 191.338L244.594 187.153L240.409 184.417L231.485 178.581L229.39 181.784L224.474 178.569L226.569 175.366L211.821 165.722L209.727 168.925L204.811 165.71L206.905 162.507L196.888 155.957Z" fill="white"/>
<rect x="212.539" y="155.777" width="4" height="7" transform="rotate(33.1822 212.539 155.777)" fill="white"/>
<rect x="189.586" y="163.469" width="48" height="4" transform="rotate(33.1822 189.586 163.469)" fill="white"/>
<rect x="231.788" y="168.365" width="5" height="7" transform="rotate(33.1822 231.788 168.365)" fill="white"/>
<path d="M189.873 192.392C191.942 192.152 193.615 191.922 194.894 191.703C196.181 191.47 197.355 191.122 198.414 190.659C199.473 190.197 200.258 189.575 200.769 188.794C201.234 188.083 201.431 187.415 201.361 186.792C201.291 186.168 200.907 185.629 200.21 185.173C199.512 184.717 198.82 184.602 198.133 184.83C197.456 185.044 196.845 185.551 196.302 186.351L193.457 184.491C194.607 182.853 195.933 181.908 197.433 181.654C198.947 181.409 200.429 181.761 201.88 182.71C203.47 183.75 204.412 184.974 204.707 186.381C205.01 187.774 204.711 189.161 203.808 190.542C203.096 191.63 202.124 192.478 200.89 193.085C199.657 193.692 198.421 194.119 197.185 194.366C195.957 194.599 194.399 194.835 192.511 195.073L198.683 199.11L197.096 201.537L186.76 194.778L188.183 192.602L189.873 192.392ZM201.887 200.249C203.956 200.009 205.63 199.779 206.908 199.56C208.196 199.327 209.369 198.979 210.428 198.516C211.488 198.054 212.273 197.432 212.783 196.651C213.249 195.94 213.446 195.272 213.376 194.649C213.306 194.025 212.922 193.485 212.224 193.029C211.527 192.573 210.835 192.459 210.148 192.687C209.47 192.901 208.86 193.408 208.317 194.208L205.471 192.347C206.622 190.71 207.947 189.764 209.447 189.511C210.961 189.266 212.444 189.618 213.894 190.567C215.485 191.607 216.427 192.83 216.721 194.238C217.025 195.631 216.725 197.018 215.822 198.399C215.111 199.487 214.138 200.335 212.905 200.942C211.671 201.549 210.436 201.976 209.199 202.223C207.972 202.456 206.414 202.691 204.525 202.93L210.698 206.966L209.11 209.394L198.774 202.634L200.197 200.458L201.887 200.249Z" fill="white"/>
<path fill-rule="evenodd" clip-rule="evenodd" d="M295.481 145.86L243.562 142.973L241.27 184.194L293.19 187.08L295.481 145.86ZM243.839 137.981L238.847 137.703L238.569 142.696L236.278 183.916L236 188.908L240.992 189.186L292.912 192.072L297.904 192.35L298.182 187.358L300.474 146.137L300.751 141.145L295.759 140.868L285.112 140.276L284.9 144.097L279.035 143.771L279.248 139.95L261.654 138.971L261.441 142.793L255.577 142.467L255.789 138.645L243.839 137.981Z" fill="#A04063"/>
<rect x="257.303" y="130" width="4" height="7" transform="rotate(3.1822 257.303 130)" fill="#A04063"/>
<rect x="241.271" y="148.138" width="48" height="4" transform="rotate(3.1822 241.271 148.138)" fill="#A04063"/>
<rect x="280.267" y="131.277" width="5" height="7" transform="rotate(3.1822 280.267 131.277)" fill="#A04063"/>
<path d="M264.558 167.811C262.942 166.853 262.184 165.467 262.285 163.653C262.335 162.755 262.605 161.952 263.095 161.245C263.603 160.522 264.326 159.969 265.266 159.588C266.222 159.19 267.366 159.028 268.698 159.102C270.029 159.176 271.14 159.464 272.03 159.964C272.938 160.448 273.596 161.077 274.003 161.851C274.429 162.609 274.616 163.438 274.566 164.336C274.515 165.252 274.246 166.046 273.758 166.72C273.27 167.377 272.642 167.877 271.872 168.218C272.765 168.668 273.448 169.29 273.921 170.084C274.395 170.878 274.602 171.8 274.544 172.848C274.481 173.98 274.135 174.954 273.505 175.77C272.893 176.571 272.075 177.168 271.052 177.562C270.028 177.955 268.893 178.118 267.644 178.048C266.396 177.979 265.286 177.692 264.312 177.187C263.355 176.683 262.609 175.999 262.073 175.134C261.554 174.254 261.326 173.248 261.389 172.117C261.447 171.068 261.756 170.176 262.314 169.439C262.873 168.686 263.621 168.143 264.558 167.811ZM271.144 164.647C271.189 163.831 270.975 163.185 270.5 162.708C270.043 162.232 269.39 161.97 268.541 161.923C267.709 161.877 267.031 162.064 266.507 162.486C265.999 162.908 265.722 163.536 265.676 164.368C265.634 165.117 265.85 165.73 266.325 166.207C266.816 166.685 267.46 166.946 268.259 166.99C269.058 167.035 269.728 166.847 270.269 166.426C270.81 165.989 271.102 165.396 271.144 164.647ZM268.118 169.536C267.169 169.484 266.382 169.682 265.756 170.131C265.147 170.581 264.817 171.256 264.767 172.154C264.721 172.986 264.966 173.684 265.502 174.248C266.056 174.797 266.824 175.098 267.805 175.153C268.787 175.207 269.576 174.984 270.171 174.483C270.767 173.982 271.087 173.324 271.132 172.508C271.181 171.626 270.928 170.928 270.372 170.413C269.818 169.881 269.066 169.589 268.118 169.536Z" fill="white"/>
<path fill-rule="evenodd" clip-rule="evenodd" d="M50.7301 206.009L9.08888 203.694L7.26984 236.412L48.9111 238.728L50.7301 206.009ZM9.36644 198.702L4.37415 198.424L4.09659 203.417L2.27755 236.135L1.99999 241.127L6.99228 241.405L48.6335 243.72L53.6258 243.997L53.9034 239.005L55.7224 206.287L56 201.295L51.0077 201.017L9.36644 198.702ZM23.3942 199.482L23.217 202.669L18.3261 202.397L18.5033 199.21L23.3942 199.482ZM42.7805 203.756L42.9577 200.569L38.0668 200.298L37.8896 203.484L42.7805 203.756Z" fill="#A04063"/>
<rect x="19.7658" y="192" width="3.33584" height="5.83773" transform="rotate(3.1822 19.7658 192)" fill="#A04063"/>
<rect x="6.39609" y="207.126" width="40.0301" height="3.33584" transform="rotate(3.1822 6.39609 207.126)" fill="#A04063"/>
<rect x="38.9173" y="193.065" width="4.1698" height="5.83773" transform="rotate(3.1822 38.9173 193.065)" fill="#A04063"/>
<path d="M31.8168 220.616C31.6892 219.908 31.4271 219.367 31.0305 218.995C30.6506 218.623 30.0779 218.416 29.3124 218.373C28.1642 218.309 27.2896 218.728 26.6886 219.63C26.1052 220.515 25.7474 221.998 25.6151 224.077C26.0515 223.433 26.6626 222.95 27.4484 222.626C28.2352 222.286 29.0779 222.141 29.9765 222.191C31.0581 222.251 32.002 222.537 32.8082 223.05C33.6143 223.562 34.2254 224.28 34.6414 225.205C35.0583 226.113 35.2321 227.19 35.1627 228.439C35.097 229.62 34.7969 230.663 34.2625 231.568C33.7457 232.458 33.0153 233.135 32.0714 233.6C31.1274 234.065 30.0231 234.262 28.7584 234.192C27.0277 234.096 25.6845 233.637 24.7286 232.816C23.7893 231.996 23.1579 230.893 22.8344 229.506C22.5285 228.103 22.4315 226.395 22.5434 224.382C22.7127 221.336 23.3646 219.069 24.499 217.58C25.6343 216.074 27.3336 215.384 29.5968 215.51C31.3441 215.607 32.674 216.156 33.5864 217.159C34.4988 218.161 34.9906 219.373 35.0617 220.796L31.8168 220.616ZM29.0181 225.017C28.1361 224.968 27.3813 225.185 26.7535 225.667C26.1258 226.15 25.7846 226.882 25.73 227.864C25.6754 228.846 25.907 229.635 26.4247 230.231C26.959 230.829 27.7337 231.155 28.7488 231.212C29.6474 231.262 30.3699 231.026 30.9163 230.506C31.4794 229.986 31.7868 229.261 31.8386 228.329C31.8923 227.364 31.6769 226.584 31.1925 225.989C30.7247 225.396 29.9999 225.072 29.0181 225.017Z" fill="white"/>
<path fill-rule="evenodd" clip-rule="evenodd" d="M307.73 212.009L266.089 209.694L264.27 242.412L305.911 244.728L307.73 212.009ZM266.366 204.702L261.374 204.424L261.097 209.417L259.278 242.135L259 247.127L263.992 247.405L305.634 249.72L310.626 249.997L310.903 245.005L312.722 212.287L313 207.295L308.008 207.017L266.366 204.702ZM280.394 205.482L280.217 208.669L275.326 208.397L275.503 205.21L280.394 205.482ZM299.78 209.756L299.958 206.569L295.067 206.298L294.89 209.484L299.78 209.756Z" fill="#A04063"/>
<rect x="276.766" y="198" width="3.33584" height="5.83773" transform="rotate(3.1822 276.766 198)" fill="#A04063"/>
<rect x="263.396" y="213.126" width="40.0301" height="3.33584" transform="rotate(3.1822 263.396 213.126)" fill="#A04063"/>
<rect x="295.917" y="199.065" width="4.1698" height="5.83773" transform="rotate(3.1822 295.917 199.065)" fill="#A04063"/>
<path d="M275.309 224.832L275.488 221.612L281.504 221.947L280.492 240.144L276.898 239.944L277.73 224.967L275.309 224.832ZM285.262 236.453C286.933 235.21 288.268 234.174 289.266 233.345C290.264 232.499 291.106 231.611 291.792 230.681C292.478 229.751 292.847 228.82 292.899 227.888C292.946 227.04 292.784 226.363 292.411 225.858C292.038 225.353 291.436 225.078 290.604 225.032C289.772 224.985 289.116 225.233 288.635 225.773C288.155 226.298 287.88 227.042 287.81 228.006L284.415 227.817C284.593 225.824 285.267 224.343 286.44 223.373C287.629 222.404 289.089 221.968 290.819 222.064C292.716 222.169 294.144 222.758 295.103 223.829C296.062 224.884 296.496 226.235 296.405 227.883C296.333 229.181 295.914 230.401 295.15 231.544C294.385 232.687 293.529 233.674 292.581 234.506C291.635 235.321 290.403 236.304 288.887 237.455L296.25 237.865L296.089 240.76L283.759 240.075L283.903 237.479L285.262 236.453Z" fill="white"/>
</svg>
