<svg width="320" height="254" viewBox="0 0 320 254" fill="none" xmlns="http://www.w3.org/2000/svg">
<rect width="320" height="254" rx="4" fill="#1F3451"/>
<path d="M54.8325 56.25C54.8325 54.5333 55.2159 53 55.9825 51.65C56.7659 50.2833 57.8242 49.225 59.1575 48.475C60.5075 47.7083 62.0159 47.325 63.6825 47.325C65.6325 47.325 67.3409 47.825 68.8075 48.825C70.2742 49.825 71.2992 51.2083 71.8825 52.975H67.8575C67.4575 52.1417 66.8909 51.5167 66.1575 51.1C65.4409 50.6833 64.6075 50.475 63.6575 50.475C62.6409 50.475 61.7325 50.7167 60.9325 51.2C60.1492 51.6667 59.5325 52.3333 59.0825 53.2C58.6492 54.0667 58.4325 55.0833 58.4325 56.25C58.4325 57.4 58.6492 58.4167 59.0825 59.3C59.5325 60.1667 60.1492 60.8417 60.9325 61.325C61.7325 61.7917 62.6409 62.025 63.6575 62.025C64.6075 62.025 65.4409 61.8167 66.1575 61.4C66.8909 60.9667 67.4575 60.3333 67.8575 59.5H71.8825C71.2992 61.2833 70.2742 62.675 68.8075 63.675C67.3575 64.6583 65.6492 65.15 63.6825 65.15C62.0159 65.15 60.5075 64.775 59.1575 64.025C57.8242 63.2583 56.7659 62.2 55.9825 60.85C55.2159 59.5 54.8325 57.9667 54.8325 56.25ZM82.672 50.95C83.722 50.95 84.6553 51.1833 85.472 51.65C86.2886 52.1 86.922 52.775 87.372 53.675C87.8386 54.5583 88.072 55.625 88.072 56.875V65H84.572V57.35C84.572 56.25 84.297 55.4083 83.747 54.825C83.197 54.225 82.447 53.925 81.497 53.925C80.5303 53.925 79.7636 54.225 79.197 54.825C78.647 55.4083 78.372 56.25 78.372 57.35V65H74.872V46.5H78.372V52.875C78.822 52.275 79.422 51.8083 80.172 51.475C80.922 51.125 81.7553 50.95 82.672 50.95ZM97.5503 65.225C96.217 65.225 95.017 64.9333 93.9503 64.35C92.8836 63.75 92.042 62.9083 91.4253 61.825C90.8253 60.7417 90.5253 59.4917 90.5253 58.075C90.5253 56.6583 90.8336 55.4083 91.4503 54.325C92.0836 53.2417 92.942 52.4083 94.0253 51.825C95.1086 51.225 96.317 50.925 97.6503 50.925C98.9836 50.925 100.192 51.225 101.275 51.825C102.359 52.4083 103.209 53.2417 103.825 54.325C104.459 55.4083 104.775 56.6583 104.775 58.075C104.775 59.4917 104.45 60.7417 103.8 61.825C103.167 62.9083 102.3 63.75 101.2 64.35C100.117 64.9333 98.9003 65.225 97.5503 65.225ZM97.5503 62.175C98.1836 62.175 98.7753 62.025 99.3253 61.725C99.892 61.4083 100.342 60.9417 100.675 60.325C101.009 59.7083 101.175 58.9583 101.175 58.075C101.175 56.7583 100.825 55.75 100.125 55.05C99.442 54.3333 98.6003 53.975 97.6003 53.975C96.6003 53.975 95.7586 54.3333 95.0753 55.05C94.4086 55.75 94.0753 56.7583 94.0753 58.075C94.0753 59.3917 94.4003 60.4083 95.0503 61.125C95.717 61.825 96.5503 62.175 97.5503 62.175ZM113.493 65.225C112.159 65.225 110.959 64.9333 109.893 64.35C108.826 63.75 107.984 62.9083 107.368 61.825C106.768 60.7417 106.468 59.4917 106.468 58.075C106.468 56.6583 106.776 55.4083 107.393 54.325C108.026 53.2417 108.884 52.4083 109.968 51.825C111.051 51.225 112.259 50.925 113.593 50.925C114.926 50.925 116.134 51.225 117.218 51.825C118.301 52.4083 119.151 53.2417 119.768 54.325C120.401 55.4083 120.718 56.6583 120.718 58.075C120.718 59.4917 120.393 60.7417 119.743 61.825C119.109 62.9083 118.243 63.75 117.143 64.35C116.059 64.9333 114.843 65.225 113.493 65.225ZM113.493 62.175C114.126 62.175 114.718 62.025 115.268 61.725C115.834 61.4083 116.284 60.9417 116.618 60.325C116.951 59.7083 117.118 58.9583 117.118 58.075C117.118 56.7583 116.768 55.75 116.068 55.05C115.384 54.3333 114.543 53.975 113.543 53.975C112.543 53.975 111.701 54.3333 111.018 55.05C110.351 55.75 110.018 56.7583 110.018 58.075C110.018 59.3917 110.343 60.4083 110.993 61.125C111.659 61.825 112.493 62.175 113.493 62.175ZM128.585 65.225C127.452 65.225 126.435 65.025 125.535 64.625C124.635 64.2083 123.918 63.65 123.385 62.95C122.868 62.25 122.585 61.475 122.535 60.625H126.06C126.127 61.1583 126.385 61.6 126.835 61.95C127.302 62.3 127.877 62.475 128.56 62.475C129.227 62.475 129.743 62.3417 130.11 62.075C130.493 61.8083 130.685 61.4667 130.685 61.05C130.685 60.6 130.452 60.2667 129.985 60.05C129.535 59.8167 128.81 59.5667 127.81 59.3C126.777 59.05 125.927 58.7917 125.26 58.525C124.61 58.2583 124.043 57.85 123.56 57.3C123.093 56.75 122.86 56.0083 122.86 55.075C122.86 54.3083 123.077 53.6083 123.51 52.975C123.96 52.3417 124.593 51.8417 125.41 51.475C126.243 51.1083 127.218 50.925 128.335 50.925C129.985 50.925 131.302 51.3417 132.285 52.175C133.268 52.9917 133.81 54.1 133.91 55.5H130.56C130.51 54.95 130.277 54.5167 129.86 54.2C129.46 53.8667 128.918 53.7 128.235 53.7C127.602 53.7 127.11 53.8167 126.76 54.05C126.427 54.2833 126.26 54.6083 126.26 55.025C126.26 55.4917 126.493 55.85 126.96 56.1C127.427 56.3333 128.152 56.575 129.135 56.825C130.135 57.075 130.96 57.3333 131.61 57.6C132.26 57.8667 132.818 58.2833 133.285 58.85C133.768 59.4 134.018 60.1333 134.035 61.05C134.035 61.85 133.81 62.5667 133.36 63.2C132.927 63.8333 132.293 64.3333 131.46 64.7C130.643 65.05 129.685 65.225 128.585 65.225ZM149.783 57.775C149.783 58.275 149.75 58.725 149.683 59.125H139.558C139.641 60.125 139.991 60.9083 140.608 61.475C141.225 62.0417 141.983 62.325 142.883 62.325C144.183 62.325 145.108 61.7667 145.658 60.65H149.433C149.033 61.9833 148.266 63.0833 147.133 63.95C146 64.8 144.608 65.225 142.958 65.225C141.625 65.225 140.425 64.9333 139.358 64.35C138.308 63.75 137.483 62.9083 136.883 61.825C136.3 60.7417 136.008 59.4917 136.008 58.075C136.008 56.6417 136.3 55.3833 136.883 54.3C137.466 53.2167 138.283 52.3833 139.333 51.8C140.383 51.2167 141.591 50.925 142.958 50.925C144.275 50.925 145.45 51.2083 146.483 51.775C147.533 52.3417 148.341 53.15 148.908 54.2C149.491 55.2333 149.783 56.425 149.783 57.775ZM146.158 56.775C146.141 55.875 145.816 55.1583 145.183 54.625C144.55 54.075 143.775 53.8 142.858 53.8C141.991 53.8 141.258 54.0667 140.658 54.6C140.075 55.1167 139.716 55.8417 139.583 56.775H146.158ZM157.395 58.025C157.395 56.625 157.67 55.3833 158.22 54.3C158.786 53.2167 159.545 52.3833 160.495 51.8C161.461 51.2167 162.536 50.925 163.72 50.925C164.753 50.925 165.653 51.1333 166.42 51.55C167.203 51.9667 167.828 52.4917 168.295 53.125V51.15H171.82V65H168.295V62.975C167.845 63.625 167.22 64.1667 166.42 64.6C165.636 65.0167 164.728 65.225 163.695 65.225C162.528 65.225 161.461 64.925 160.495 64.325C159.545 63.725 158.786 62.8833 158.22 61.8C157.67 60.7 157.395 59.4417 157.395 58.025ZM168.295 58.075C168.295 57.225 168.128 56.5 167.795 55.9C167.461 55.2833 167.011 54.8167 166.445 54.5C165.878 54.1667 165.27 54 164.62 54C163.97 54 163.37 54.1583 162.82 54.475C162.27 54.7917 161.82 55.2583 161.47 55.875C161.136 56.475 160.97 57.1917 160.97 58.025C160.97 58.8583 161.136 59.5917 161.47 60.225C161.82 60.8417 162.27 61.3167 162.82 61.65C163.386 61.9833 163.986 62.15 164.62 62.15C165.27 62.15 165.878 61.9917 166.445 61.675C167.011 61.3417 167.461 60.875 167.795 60.275C168.128 59.6583 168.295 58.925 168.295 58.075ZM180.295 58.025C180.295 56.625 180.57 55.3833 181.12 54.3C181.687 53.2167 182.454 52.3833 183.42 51.8C184.387 51.2167 185.462 50.925 186.645 50.925C187.545 50.925 188.404 51.125 189.22 51.525C190.037 51.9083 190.687 52.425 191.17 53.075V46.5H194.72V65H191.17V62.95C190.737 63.6333 190.129 64.1833 189.345 64.6C188.562 65.0167 187.654 65.225 186.62 65.225C185.454 65.225 184.387 64.925 183.42 64.325C182.454 63.725 181.687 62.8833 181.12 61.8C180.57 60.7 180.295 59.4417 180.295 58.025ZM191.195 58.075C191.195 57.225 191.029 56.5 190.695 55.9C190.362 55.2833 189.912 54.8167 189.345 54.5C188.779 54.1667 188.17 54 187.52 54C186.87 54 186.27 54.1583 185.72 54.475C185.17 54.7917 184.72 55.2583 184.37 55.875C184.037 56.475 183.87 57.1917 183.87 58.025C183.87 58.8583 184.037 59.5917 184.37 60.225C184.72 60.8417 185.17 61.3167 185.72 61.65C186.287 61.9833 186.887 62.15 187.52 62.15C188.17 62.15 188.779 61.9917 189.345 61.675C189.912 61.3417 190.362 60.875 190.695 60.275C191.029 59.6583 191.195 58.925 191.195 58.075ZM197.239 58.025C197.239 56.625 197.514 55.3833 198.064 54.3C198.63 53.2167 199.389 52.3833 200.339 51.8C201.305 51.2167 202.38 50.925 203.564 50.925C204.597 50.925 205.497 51.1333 206.264 51.55C207.047 51.9667 207.672 52.4917 208.139 53.125V51.15H211.664V65H208.139V62.975C207.689 63.625 207.064 64.1667 206.264 64.6C205.48 65.0167 204.572 65.225 203.539 65.225C202.372 65.225 201.305 64.925 200.339 64.325C199.389 63.725 198.63 62.8833 198.064 61.8C197.514 60.7 197.239 59.4417 197.239 58.025ZM208.139 58.075C208.139 57.225 207.972 56.5 207.639 55.9C207.305 55.2833 206.855 54.8167 206.289 54.5C205.722 54.1667 205.114 54 204.464 54C203.814 54 203.214 54.1583 202.664 54.475C202.114 54.7917 201.664 55.2583 201.314 55.875C200.98 56.475 200.814 57.1917 200.814 58.025C200.814 58.8583 200.98 59.5917 201.314 60.225C201.664 60.8417 202.114 61.3167 202.664 61.65C203.23 61.9833 203.83 62.15 204.464 62.15C205.114 62.15 205.722 61.9917 206.289 61.675C206.855 61.3417 207.305 60.875 207.639 60.275C207.972 59.6583 208.139 58.925 208.139 58.075ZM228.332 51.15L219.757 71.55H216.032L219.032 64.65L213.482 51.15H217.407L220.982 60.825L224.607 51.15H228.332ZM240.251 54.025V60.725C240.251 61.1917 240.359 61.5333 240.576 61.75C240.809 61.95 241.192 62.05 241.726 62.05H243.351V65H241.151C238.201 65 236.726 63.5667 236.726 60.7V54.025H235.076V51.15H236.726V47.725H240.251V51.15H243.351V54.025H240.251ZM252.018 65.225C250.685 65.225 249.485 64.9333 248.418 64.35C247.351 63.75 246.51 62.9083 245.893 61.825C245.293 60.7417 244.993 59.4917 244.993 58.075C244.993 56.6583 245.301 55.4083 245.918 54.325C246.551 53.2417 247.41 52.4083 248.493 51.825C249.576 51.225 250.785 50.925 252.118 50.925C253.451 50.925 254.66 51.225 255.743 51.825C256.826 52.4083 257.676 53.2417 258.293 54.325C258.926 55.4083 259.243 56.6583 259.243 58.075C259.243 59.4917 258.918 60.7417 258.268 61.825C257.635 62.9083 256.768 63.75 255.668 64.35C254.585 64.9333 253.368 65.225 252.018 65.225ZM252.018 62.175C252.651 62.175 253.243 62.025 253.793 61.725C254.36 61.4083 254.81 60.9417 255.143 60.325C255.476 59.7083 255.643 58.9583 255.643 58.075C255.643 56.7583 255.293 55.75 254.593 55.05C253.91 54.3333 253.068 53.975 252.068 53.975C251.068 53.975 250.226 54.3333 249.543 55.05C248.876 55.75 248.543 56.7583 248.543 58.075C248.543 59.3917 248.868 60.4083 249.518 61.125C250.185 61.825 251.018 62.175 252.018 62.175ZM39.855 87.5C39.2383 87.5 38.7216 87.3083 38.305 86.925C37.905 86.525 37.705 86.0333 37.705 85.45C37.705 84.8667 37.905 84.3833 38.305 84C38.7216 83.6 39.2383 83.4 39.855 83.4C40.4716 83.4 40.98 83.6 41.38 84C41.7966 84.3833 42.005 84.8667 42.005 85.45C42.005 86.0333 41.7966 86.525 41.38 86.925C40.98 87.3083 40.4716 87.5 39.855 87.5ZM41.58 89.15V103H38.08V89.15H41.58ZM52.713 88.95C54.363 88.95 55.6963 89.475 56.713 90.525C57.7297 91.5583 58.238 93.0083 58.238 94.875V103H54.738V95.35C54.738 94.25 54.463 93.4083 53.913 92.825C53.363 92.225 52.613 91.925 51.663 91.925C50.6963 91.925 49.9297 92.225 49.363 92.825C48.813 93.4083 48.538 94.25 48.538 95.35V103H45.038V89.15H48.538V90.875C49.0047 90.275 49.5963 89.8083 50.313 89.475C51.0463 89.125 51.8463 88.95 52.713 88.95ZM60.6663 96.075C60.6663 94.6417 60.958 93.3917 61.5413 92.325C62.1246 91.2417 62.933 90.4083 63.9663 89.825C64.9996 89.225 66.183 88.925 67.5163 88.925C69.233 88.925 70.6496 89.3583 71.7663 90.225C72.8996 91.075 73.658 92.275 74.0413 93.825H70.2663C70.0663 93.225 69.7246 92.7583 69.2413 92.425C68.7746 92.075 68.1913 91.9 67.4913 91.9C66.4913 91.9 65.6996 92.2667 65.1163 93C64.533 93.7167 64.2413 94.7417 64.2413 96.075C64.2413 97.3917 64.533 98.4167 65.1163 99.15C65.6996 99.8667 66.4913 100.225 67.4913 100.225C68.908 100.225 69.833 99.5917 70.2663 98.325H74.0413C73.658 99.825 72.8996 101.017 71.7663 101.9C70.633 102.783 69.2163 103.225 67.5163 103.225C66.183 103.225 64.9996 102.933 63.9663 102.35C62.933 101.75 62.1246 100.917 61.5413 99.85C60.958 98.7667 60.6663 97.5083 60.6663 96.075ZM80.1054 84.5V103H76.6054V84.5H80.1054ZM96.6384 89.15V103H93.1134V101.25C92.6634 101.85 92.0717 102.325 91.3384 102.675C90.6217 103.008 89.8384 103.175 88.9884 103.175C87.905 103.175 86.9467 102.95 86.1134 102.5C85.28 102.033 84.6217 101.358 84.1384 100.475C83.6717 99.575 83.4384 98.5083 83.4384 97.275V89.15H86.9384V96.775C86.9384 97.875 87.2134 98.725 87.7634 99.325C88.3134 99.9083 89.0634 100.2 90.0134 100.2C90.98 100.2 91.7384 99.9083 92.2884 99.325C92.8384 98.725 93.1134 97.875 93.1134 96.775V89.15H96.6384ZM99.1917 96.025C99.1917 94.625 99.4667 93.3833 100.017 92.3C100.583 91.2167 101.35 90.3833 102.317 89.8C103.283 89.2167 104.358 88.925 105.542 88.925C106.442 88.925 107.3 89.125 108.117 89.525C108.933 89.9083 109.583 90.425 110.067 91.075V84.5H113.617V103H110.067V100.95C109.633 101.633 109.025 102.183 108.242 102.6C107.458 103.017 106.55 103.225 105.517 103.225C104.35 103.225 103.283 102.925 102.317 102.325C101.35 101.725 100.583 100.883 100.017 99.8C99.4667 98.7 99.1917 97.4417 99.1917 96.025ZM110.092 96.075C110.092 95.225 109.925 94.5 109.592 93.9C109.258 93.2833 108.808 92.8167 108.242 92.5C107.675 92.1667 107.067 92 106.417 92C105.767 92 105.167 92.1583 104.617 92.475C104.067 92.7917 103.617 93.2583 103.267 93.875C102.933 94.475 102.767 95.1917 102.767 96.025C102.767 96.8583 102.933 97.5917 103.267 98.225C103.617 98.8417 104.067 99.3167 104.617 99.65C105.183 99.9833 105.783 100.15 106.417 100.15C107.067 100.15 107.675 99.9917 108.242 99.675C108.808 99.3417 109.258 98.875 109.592 98.275C109.925 97.6583 110.092 96.925 110.092 96.075ZM129.91 95.775C129.91 96.275 129.877 96.725 129.81 97.125H119.685C119.768 98.125 120.118 98.9083 120.735 99.475C121.352 100.042 122.11 100.325 123.01 100.325C124.31 100.325 125.235 99.7667 125.785 98.65H129.56C129.16 99.9833 128.393 101.083 127.26 101.95C126.127 102.8 124.735 103.225 123.085 103.225C121.752 103.225 120.552 102.933 119.485 102.35C118.435 101.75 117.61 100.908 117.01 99.825C116.427 98.7417 116.135 97.4917 116.135 96.075C116.135 94.6417 116.427 93.3833 117.01 92.3C117.593 91.2167 118.41 90.3833 119.46 89.8C120.51 89.2167 121.718 88.925 123.085 88.925C124.402 88.925 125.577 89.2083 126.61 89.775C127.66 90.3417 128.468 91.15 129.035 92.2C129.618 93.2333 129.91 94.425 129.91 95.775ZM126.285 94.775C126.268 93.875 125.943 93.1583 125.31 92.625C124.677 92.075 123.902 91.8 122.985 91.8C122.118 91.8 121.385 92.0667 120.785 92.6C120.202 93.1167 119.843 93.8417 119.71 94.775H126.285ZM137.522 96.025C137.522 94.625 137.797 93.3833 138.347 92.3C138.913 91.2167 139.672 90.3833 140.622 89.8C141.588 89.2167 142.663 88.925 143.847 88.925C144.88 88.925 145.78 89.1333 146.547 89.55C147.33 89.9667 147.955 90.4917 148.422 91.125V89.15H151.947V103H148.422V100.975C147.972 101.625 147.347 102.167 146.547 102.6C145.763 103.017 144.855 103.225 143.822 103.225C142.655 103.225 141.588 102.925 140.622 102.325C139.672 101.725 138.913 100.883 138.347 99.8C137.797 98.7 137.522 97.4417 137.522 96.025ZM148.422 96.075C148.422 95.225 148.255 94.5 147.922 93.9C147.588 93.2833 147.138 92.8167 146.572 92.5C146.005 92.1667 145.397 92 144.747 92C144.097 92 143.497 92.1583 142.947 92.475C142.397 92.7917 141.947 93.2583 141.597 93.875C141.263 94.475 141.097 95.1917 141.097 96.025C141.097 96.8583 141.263 97.5917 141.597 98.225C141.947 98.8417 142.397 99.3167 142.947 99.65C143.513 99.9833 144.113 100.15 144.747 100.15C145.397 100.15 146.005 99.9917 146.572 99.675C147.138 99.3417 147.588 98.875 147.922 98.275C148.255 97.6583 148.422 96.925 148.422 96.075ZM168.997 88.95C170.647 88.95 171.981 89.475 172.997 90.525C174.014 91.5583 174.522 93.0083 174.522 94.875V103H171.022V95.35C171.022 94.25 170.747 93.4083 170.197 92.825C169.647 92.225 168.897 91.925 167.947 91.925C166.981 91.925 166.214 92.225 165.647 92.825C165.097 93.4083 164.822 94.25 164.822 95.35V103H161.322V89.15H164.822V90.875C165.289 90.275 165.881 89.8083 166.597 89.475C167.331 89.125 168.131 88.95 168.997 88.95ZM190.725 95.775C190.725 96.275 190.692 96.725 190.625 97.125H180.5C180.584 98.125 180.934 98.9083 181.55 99.475C182.167 100.042 182.925 100.325 183.825 100.325C185.125 100.325 186.05 99.7667 186.6 98.65H190.375C189.975 99.9833 189.209 101.083 188.075 101.95C186.942 102.8 185.55 103.225 183.9 103.225C182.567 103.225 181.367 102.933 180.3 102.35C179.25 101.75 178.425 100.908 177.825 99.825C177.242 98.7417 176.95 97.4917 176.95 96.075C176.95 94.6417 177.242 93.3833 177.825 92.3C178.409 91.2167 179.225 90.3833 180.275 89.8C181.325 89.2167 182.534 88.925 183.9 88.925C185.217 88.925 186.392 89.2083 187.425 89.775C188.475 90.3417 189.284 91.15 189.85 92.2C190.434 93.2333 190.725 94.425 190.725 95.775ZM187.1 94.775C187.084 93.875 186.759 93.1583 186.125 92.625C185.492 92.075 184.717 91.8 183.8 91.8C182.934 91.8 182.2 92.0667 181.6 92.6C181.017 93.1167 180.659 93.8417 180.525 94.775H187.1ZM212.48 89.15L208.43 103H204.655L202.13 93.325L199.605 103H195.805L191.73 89.15H195.28L197.73 99.7L200.38 89.15H204.08L206.68 99.675L209.13 89.15H212.48ZM223.831 91.15C224.281 90.5167 224.898 89.9917 225.681 89.575C226.481 89.1417 227.389 88.925 228.406 88.925C229.589 88.925 230.656 89.2167 231.606 89.8C232.573 90.3833 233.331 91.2167 233.881 92.3C234.448 93.3667 234.731 94.6083 234.731 96.025C234.731 97.4417 234.448 98.7 233.881 99.8C233.331 100.883 232.573 101.725 231.606 102.325C230.656 102.925 229.589 103.225 228.406 103.225C227.389 103.225 226.489 103.017 225.706 102.6C224.939 102.183 224.314 101.658 223.831 101.025V109.6H220.331V89.15H223.831V91.15ZM231.156 96.025C231.156 95.1917 230.981 94.475 230.631 93.875C230.298 93.2583 229.848 92.7917 229.281 92.475C228.731 92.1583 228.131 92 227.481 92C226.848 92 226.248 92.1667 225.681 92.5C225.131 92.8167 224.681 93.2833 224.331 93.9C223.998 94.5167 223.831 95.2417 223.831 96.075C223.831 96.9083 223.998 97.6333 224.331 98.25C224.681 98.8667 225.131 99.3417 225.681 99.675C226.248 99.9917 226.848 100.15 227.481 100.15C228.131 100.15 228.731 99.9833 229.281 99.65C229.848 99.3167 230.298 98.8417 230.631 98.225C230.981 97.6083 231.156 96.875 231.156 96.025ZM243.424 103.225C242.091 103.225 240.891 102.933 239.824 102.35C238.758 101.75 237.916 100.908 237.299 99.825C236.699 98.7417 236.399 97.4917 236.399 96.075C236.399 94.6583 236.708 93.4083 237.324 92.325C237.958 91.2417 238.816 90.4083 239.899 89.825C240.983 89.225 242.191 88.925 243.524 88.925C244.858 88.925 246.066 89.225 247.149 89.825C248.233 90.4083 249.083 91.2417 249.699 92.325C250.333 93.4083 250.649 94.6583 250.649 96.075C250.649 97.4917 250.324 98.7417 249.674 99.825C249.041 100.908 248.174 101.75 247.074 102.35C245.991 102.933 244.774 103.225 243.424 103.225ZM243.424 100.175C244.058 100.175 244.649 100.025 245.199 99.725C245.766 99.4083 246.216 98.9417 246.549 98.325C246.883 97.7083 247.049 96.9583 247.049 96.075C247.049 94.7583 246.699 93.75 245.999 93.05C245.316 92.3333 244.474 91.975 243.474 91.975C242.474 91.975 241.633 92.3333 240.949 93.05C240.283 93.75 239.949 94.7583 239.949 96.075C239.949 97.3917 240.274 98.4083 240.924 99.125C241.591 99.825 242.424 100.175 243.424 100.175ZM258.517 103.225C257.383 103.225 256.367 103.025 255.467 102.625C254.567 102.208 253.85 101.65 253.317 100.95C252.8 100.25 252.517 99.475 252.467 98.625H255.992C256.058 99.1583 256.317 99.6 256.767 99.95C257.233 100.3 257.808 100.475 258.492 100.475C259.158 100.475 259.675 100.342 260.042 100.075C260.425 99.8083 260.617 99.4667 260.617 99.05C260.617 98.6 260.383 98.2667 259.917 98.05C259.467 97.8167 258.742 97.5667 257.742 97.3C256.708 97.05 255.858 96.7917 255.192 96.525C254.542 96.2583 253.975 95.85 253.492 95.3C253.025 94.75 252.792 94.0083 252.792 93.075C252.792 92.3083 253.008 91.6083 253.442 90.975C253.892 90.3417 254.525 89.8417 255.342 89.475C256.175 89.1083 257.15 88.925 258.267 88.925C259.917 88.925 261.233 89.3417 262.217 90.175C263.2 90.9917 263.742 92.1 263.842 93.5H260.492C260.442 92.95 260.208 92.5167 259.792 92.2C259.392 91.8667 258.85 91.7 258.167 91.7C257.533 91.7 257.042 91.8167 256.692 92.05C256.358 92.2833 256.192 92.6083 256.192 93.025C256.192 93.4917 256.425 93.85 256.892 94.1C257.358 94.3333 258.083 94.575 259.067 94.825C260.067 95.075 260.892 95.3333 261.542 95.6C262.192 95.8667 262.75 96.2833 263.217 96.85C263.7 97.4 263.95 98.1333 263.967 99.05C263.967 99.85 263.742 100.567 263.292 101.2C262.858 101.833 262.225 102.333 261.392 102.7C260.575 103.05 259.617 103.225 258.517 103.225ZM270.915 92.025V98.725C270.915 99.1917 271.023 99.5333 271.24 99.75C271.473 99.95 271.856 100.05 272.39 100.05H274.015V103H271.815C268.865 103 267.39 101.567 267.39 98.7V92.025H265.74V89.15H267.39V85.725H270.915V89.15H274.015V92.025H270.915ZM281.057 85.25L280.657 97.325H277.707L277.282 85.25H281.057ZM279.257 103.175C278.624 103.175 278.099 102.983 277.682 102.6C277.282 102.2 277.082 101.708 277.082 101.125C277.082 100.542 277.282 100.058 277.682 99.675C278.099 99.275 278.624 99.075 279.257 99.075C279.874 99.075 280.382 99.275 280.782 99.675C281.182 100.058 281.382 100.542 281.382 101.125C281.382 101.708 281.182 102.2 280.782 102.6C280.382 102.983 279.874 103.175 279.257 103.175Z" fill="white"/>
</svg>
