<svg width="9" height="28" viewBox="0 0 9 28" fill="none" xmlns="http://www.w3.org/2000/svg">
<path d="M0.00281429 7.94789C0.0365429 10.6532 0.862899 13.0138 2.61117 15.1246C5.05089 18.0697 5.10991 21.6144 2.82479 24.6344C1.95627 25.7835 2.08557 26.8826 3.17332 27.607C4.24421 28.3189 5.59336 28.0467 6.53777 26.9276C9.86005 22.9932 9.82351 17.0805 6.40847 12.9339C4.42691 10.5283 4.02778 7.93041 5.12959 5.14765C5.38255 4.51067 5.80697 3.92114 6.21453 3.34661C7.0184 2.21252 6.86943 1.04846 5.77887 0.379005C4.67144 -0.302944 3.40942 -0.0556439 2.49593 1.04846C0.770144 3.12928 0.0140543 5.48988 0 7.95039L0.00281429 7.94789Z" fill="#1F3451"/>
</svg>
