<svg width="250" height="144" viewBox="0 0 250 144" fill="none" xmlns="http://www.w3.org/2000/svg">
<path fill-rule="evenodd" clip-rule="evenodd" d="M149 70C154.523 70 159 66.866 159 63H184.089C184.796 66.9463 189.636 70 195.5 70C201.364 70 206.204 66.9463 206.911 63H246C248.209 63 250 64.7909 250 67V140C250 142.209 248.209 144 246 144H3.99999C1.79085 144 0 142.209 0 140V67C0 64.7909 1.79086 63 4 63H24.0379C24.5485 66.3562 30.1568 69 37 69C43.8432 69 49.4515 66.3562 49.9621 63H83.0335C83.4852 66.3562 88.4464 69 94.5 69C100.554 69 105.515 66.3562 105.966 63H139C139 66.866 143.477 70 149 70Z" fill="#1F3451"/>
<path d="M53.149 129H49.649L41.724 117.025V129H38.224V111.525H41.724L49.649 123.525V111.525H53.149V129ZM62.7578 129.225C61.4245 129.225 60.2245 128.933 59.1578 128.35C58.0911 127.75 57.2495 126.908 56.6328 125.825C56.0328 124.742 55.7328 123.492 55.7328 122.075C55.7328 120.658 56.0411 119.408 56.6578 118.325C57.2911 117.242 58.1495 116.408 59.2328 115.825C60.3161 115.225 61.5245 114.925 62.8578 114.925C64.1911 114.925 65.3995 115.225 66.4828 115.825C67.5661 116.408 68.4161 117.242 69.0328 118.325C69.6661 119.408 69.9828 120.658 69.9828 122.075C69.9828 123.492 69.6578 124.742 69.0078 125.825C68.3745 126.908 67.5078 127.75 66.4078 128.35C65.3245 128.933 64.1078 129.225 62.7578 129.225ZM62.7578 126.175C63.3911 126.175 63.9828 126.025 64.5328 125.725C65.0995 125.408 65.5495 124.942 65.8828 124.325C66.2161 123.708 66.3828 122.958 66.3828 122.075C66.3828 120.758 66.0328 119.75 65.3328 119.05C64.6495 118.333 63.8078 117.975 62.8078 117.975C61.8078 117.975 60.9661 118.333 60.2828 119.05C59.6161 119.75 59.2828 120.758 59.2828 122.075C59.2828 123.392 59.6078 124.408 60.2578 125.125C60.9245 125.825 61.7578 126.175 62.7578 126.175ZM82.0072 117.15C82.4572 116.517 83.0739 115.992 83.8572 115.575C84.6572 115.142 85.5656 114.925 86.5822 114.925C87.7656 114.925 88.8322 115.217 89.7822 115.8C90.7489 116.383 91.5072 117.217 92.0572 118.3C92.6239 119.367 92.9072 120.608 92.9072 122.025C92.9072 123.442 92.6239 124.7 92.0572 125.8C91.5072 126.883 90.7489 127.725 89.7822 128.325C88.8322 128.925 87.7656 129.225 86.5822 129.225C85.5656 129.225 84.6656 129.017 83.8822 128.6C83.1156 128.183 82.4906 127.658 82.0072 127.025V135.6H78.5072V115.15H82.0072V117.15ZM89.3322 122.025C89.3322 121.192 89.1572 120.475 88.8072 119.875C88.4739 119.258 88.0239 118.792 87.4572 118.475C86.9072 118.158 86.3072 118 85.6572 118C85.0239 118 84.4239 118.167 83.8572 118.5C83.3072 118.817 82.8572 119.283 82.5072 119.9C82.1739 120.517 82.0072 121.242 82.0072 122.075C82.0072 122.908 82.1739 123.633 82.5072 124.25C82.8572 124.867 83.3072 125.342 83.8572 125.675C84.4239 125.992 85.0239 126.15 85.6572 126.15C86.3072 126.15 86.9072 125.983 87.4572 125.65C88.0239 125.317 88.4739 124.842 88.8072 124.225C89.1572 123.608 89.3322 122.875 89.3322 122.025ZM101.601 129.225C100.267 129.225 99.0673 128.933 98.0006 128.35C96.9339 127.75 96.0923 126.908 95.4756 125.825C94.8756 124.742 94.5756 123.492 94.5756 122.075C94.5756 120.658 94.8839 119.408 95.5006 118.325C96.1339 117.242 96.9923 116.408 98.0756 115.825C99.1589 115.225 100.367 114.925 101.701 114.925C103.034 114.925 104.242 115.225 105.326 115.825C106.409 116.408 107.259 117.242 107.876 118.325C108.509 119.408 108.826 120.658 108.826 122.075C108.826 123.492 108.501 124.742 107.851 125.825C107.217 126.908 106.351 127.75 105.251 128.35C104.167 128.933 102.951 129.225 101.601 129.225ZM101.601 126.175C102.234 126.175 102.826 126.025 103.376 125.725C103.942 125.408 104.392 124.942 104.726 124.325C105.059 123.708 105.226 122.958 105.226 122.075C105.226 120.758 104.876 119.75 104.176 119.05C103.492 118.333 102.651 117.975 101.651 117.975C100.651 117.975 99.8089 118.333 99.1256 119.05C98.4589 119.75 98.1256 120.758 98.1256 122.075C98.1256 123.392 98.4506 124.408 99.1006 125.125C99.7673 125.825 100.601 126.175 101.601 126.175ZM116.693 129.225C115.56 129.225 114.543 129.025 113.643 128.625C112.743 128.208 112.026 127.65 111.493 126.95C110.976 126.25 110.693 125.475 110.643 124.625H114.168C114.235 125.158 114.493 125.6 114.943 125.95C115.41 126.3 115.985 126.475 116.668 126.475C117.335 126.475 117.851 126.342 118.218 126.075C118.601 125.808 118.793 125.467 118.793 125.05C118.793 124.6 118.56 124.267 118.093 124.05C117.643 123.817 116.918 123.567 115.918 123.3C114.885 123.05 114.035 122.792 113.368 122.525C112.718 122.258 112.151 121.85 111.668 121.3C111.201 120.75 110.968 120.008 110.968 119.075C110.968 118.308 111.185 117.608 111.618 116.975C112.068 116.342 112.701 115.842 113.518 115.475C114.351 115.108 115.326 114.925 116.443 114.925C118.093 114.925 119.41 115.342 120.393 116.175C121.376 116.992 121.918 118.1 122.018 119.5H118.668C118.618 118.95 118.385 118.517 117.968 118.2C117.568 117.867 117.026 117.7 116.343 117.7C115.71 117.7 115.218 117.817 114.868 118.05C114.535 118.283 114.368 118.608 114.368 119.025C114.368 119.492 114.601 119.85 115.068 120.1C115.535 120.333 116.26 120.575 117.243 120.825C118.243 121.075 119.068 121.333 119.718 121.6C120.368 121.867 120.926 122.283 121.393 122.85C121.876 123.4 122.126 124.133 122.143 125.05C122.143 125.85 121.918 126.567 121.468 127.2C121.035 127.833 120.401 128.333 119.568 128.7C118.751 129.05 117.793 129.225 116.693 129.225ZM129.091 118.025V124.725C129.091 125.192 129.199 125.533 129.416 125.75C129.649 125.95 130.033 126.05 130.566 126.05H132.191V129H129.991C127.041 129 125.566 127.567 125.566 124.7V118.025H123.916V115.15H125.566V111.725H129.091V115.15H132.191V118.025H129.091ZM147.015 118.025H144.59V129H141.04V118.025H139.465V115.15H141.04V114.45C141.04 112.75 141.524 111.5 142.49 110.7C143.457 109.9 144.915 109.525 146.865 109.575V112.525C146.015 112.508 145.424 112.65 145.09 112.95C144.757 113.25 144.59 113.792 144.59 114.575V115.15H147.015V118.025ZM155.434 129.225C154.1 129.225 152.9 128.933 151.834 128.35C150.767 127.75 149.925 126.908 149.309 125.825C148.709 124.742 148.409 123.492 148.409 122.075C148.409 120.658 148.717 119.408 149.334 118.325C149.967 117.242 150.825 116.408 151.909 115.825C152.992 115.225 154.2 114.925 155.534 114.925C156.867 114.925 158.075 115.225 159.159 115.825C160.242 116.408 161.092 117.242 161.709 118.325C162.342 119.408 162.659 120.658 162.659 122.075C162.659 123.492 162.334 124.742 161.684 125.825C161.05 126.908 160.184 127.75 159.084 128.35C158 128.933 156.784 129.225 155.434 129.225ZM155.434 126.175C156.067 126.175 156.659 126.025 157.209 125.725C157.775 125.408 158.225 124.942 158.559 124.325C158.892 123.708 159.059 122.958 159.059 122.075C159.059 120.758 158.709 119.75 158.009 119.05C157.325 118.333 156.484 117.975 155.484 117.975C154.484 117.975 153.642 118.333 152.959 119.05C152.292 119.75 151.959 120.758 151.959 122.075C151.959 123.392 152.284 124.408 152.934 125.125C153.6 125.825 154.434 126.175 155.434 126.175ZM178.301 115.15V129H174.776V127.25C174.326 127.85 173.734 128.325 173.001 128.675C172.284 129.008 171.501 129.175 170.651 129.175C169.568 129.175 168.609 128.95 167.776 128.5C166.943 128.033 166.284 127.358 165.801 126.475C165.334 125.575 165.101 124.508 165.101 123.275V115.15H168.601V122.775C168.601 123.875 168.876 124.725 169.426 125.325C169.976 125.908 170.726 126.2 171.676 126.2C172.643 126.2 173.401 125.908 173.951 125.325C174.501 124.725 174.776 123.875 174.776 122.775V115.15H178.301ZM189.429 114.95C191.079 114.95 192.413 115.475 193.429 116.525C194.446 117.558 194.954 119.008 194.954 120.875V129H191.454V121.35C191.454 120.25 191.179 119.408 190.629 118.825C190.079 118.225 189.329 117.925 188.379 117.925C187.413 117.925 186.646 118.225 186.079 118.825C185.529 119.408 185.254 120.25 185.254 121.35V129H181.754V115.15H185.254V116.875C185.721 116.275 186.313 115.808 187.029 115.475C187.763 115.125 188.563 114.95 189.429 114.95ZM197.383 122.025C197.383 120.625 197.658 119.383 198.208 118.3C198.774 117.217 199.541 116.383 200.508 115.8C201.474 115.217 202.549 114.925 203.733 114.925C204.633 114.925 205.491 115.125 206.308 115.525C207.124 115.908 207.774 116.425 208.258 117.075V110.5H211.808V129H208.258V126.95C207.824 127.633 207.216 128.183 206.433 128.6C205.649 129.017 204.741 129.225 203.708 129.225C202.541 129.225 201.474 128.925 200.508 128.325C199.541 127.725 198.774 126.883 198.208 125.8C197.658 124.7 197.383 123.442 197.383 122.025ZM208.283 122.075C208.283 121.225 208.116 120.5 207.783 119.9C207.449 119.283 206.999 118.817 206.433 118.5C205.866 118.167 205.258 118 204.608 118C203.958 118 203.358 118.158 202.808 118.475C202.258 118.792 201.808 119.258 201.458 119.875C201.124 120.475 200.958 121.192 200.958 122.025C200.958 122.858 201.124 123.592 201.458 124.225C201.808 124.842 202.258 125.317 202.808 125.65C203.374 125.983 203.974 126.15 204.608 126.15C205.258 126.15 205.866 125.992 206.433 125.675C206.999 125.342 207.449 124.875 207.783 124.275C208.116 123.658 208.283 122.925 208.283 122.075Z" fill="white"/>
<path d="M36.4791 76.56C31.2524 76.56 26.4524 75.3333 22.0791 72.88C17.7057 70.4267 14.2391 67.04 11.6791 62.72C9.11906 58.3467 7.83906 53.4133 7.83906 47.92C7.83906 42.48 9.11906 37.6 11.6791 33.28C14.2391 28.9067 17.7057 25.4933 22.0791 23.04C26.4524 20.5867 31.2524 19.36 36.4791 19.36C41.7591 19.36 46.5591 20.5867 50.8791 23.04C55.2524 25.4933 58.6924 28.9067 61.1991 33.28C63.7591 37.6 65.0391 42.48 65.0391 47.92C65.0391 53.4133 63.7591 58.3467 61.1991 62.72C58.6924 67.04 55.2524 70.4267 50.8791 72.88C46.5057 75.3333 41.7057 76.56 36.4791 76.56ZM36.4791 66.56C39.8391 66.56 42.7991 65.8133 45.3591 64.32C47.9191 62.7733 49.9191 60.5867 51.3591 57.76C52.7991 54.9333 53.5191 51.6533 53.5191 47.92C53.5191 44.1867 52.7991 40.9333 51.3591 38.16C49.9191 35.3333 47.9191 33.1733 45.3591 31.68C42.7991 30.1867 39.8391 29.44 36.4791 29.44C33.1191 29.44 30.1324 30.1867 27.5191 31.68C24.9591 33.1733 22.9591 35.3333 21.5191 38.16C20.0791 40.9333 19.3591 44.1867 19.3591 47.92C19.3591 51.6533 20.0791 54.9333 21.5191 57.76C22.9591 60.5867 24.9591 62.7733 27.5191 64.32C30.1324 65.8133 33.1191 66.56 36.4791 66.56ZM93.0516 76.72C88.7849 76.72 84.9449 75.7867 81.5316 73.92C78.1182 72 75.4249 69.3067 73.4516 65.84C71.5316 62.3733 70.5716 58.3733 70.5716 53.84C70.5716 49.3067 71.5582 45.3067 73.5316 41.84C75.5582 38.3733 78.3049 35.7067 81.7716 33.84C85.2382 31.92 89.1049 30.96 93.3716 30.96C97.6382 30.96 101.505 31.92 104.972 33.84C108.438 35.7067 111.158 38.3733 113.132 41.84C115.158 45.3067 116.172 49.3067 116.172 53.84C116.172 58.3733 115.132 62.3733 113.052 65.84C111.025 69.3067 108.252 72 104.732 73.92C101.265 75.7867 97.3716 76.72 93.0516 76.72ZM93.0516 66.96C95.0782 66.96 96.9716 66.48 98.7316 65.52C100.545 64.5067 101.985 63.0133 103.052 61.04C104.118 59.0667 104.652 56.6667 104.652 53.84C104.652 49.6267 103.532 46.4 101.292 44.16C99.1049 41.8667 96.4116 40.72 93.2116 40.72C90.0116 40.72 87.3182 41.8667 85.1316 44.16C82.9982 46.4 81.9316 49.6267 81.9316 53.84C81.9316 58.0533 82.9716 61.3067 85.0516 63.6C87.1849 65.84 89.8516 66.96 93.0516 66.96ZM135.587 38.08C137.027 36.0533 139.001 34.3733 141.507 33.04C144.067 31.6533 146.974 30.96 150.227 30.96C154.014 30.96 157.427 31.8933 160.467 33.76C163.561 35.6267 165.987 38.2933 167.747 41.76C169.561 45.1733 170.467 49.1467 170.467 53.68C170.467 58.2133 169.561 62.24 167.747 65.76C165.987 69.2267 163.561 71.92 160.467 73.84C157.427 75.76 154.014 76.72 150.227 76.72C146.974 76.72 144.094 76.0533 141.587 74.72C139.134 73.3867 137.134 71.7067 135.587 69.68V97.12H124.387V31.68H135.587V38.08ZM159.027 53.68C159.027 51.0133 158.467 48.72 157.347 46.8C156.281 44.8267 154.841 43.3333 153.027 42.32C151.267 41.3067 149.347 40.8 147.267 40.8C145.241 40.8 143.321 41.3333 141.507 42.4C139.747 43.4133 138.307 44.9067 137.187 46.88C136.121 48.8533 135.587 51.1733 135.587 53.84C135.587 56.5067 136.121 58.8267 137.187 60.8C138.307 62.7733 139.747 64.2933 141.507 65.36C143.321 66.3733 145.241 66.88 147.267 66.88C149.347 66.88 151.267 66.3467 153.027 65.28C154.841 64.2133 156.281 62.6933 157.347 60.72C158.467 58.7467 159.027 56.4 159.027 53.68ZM195.566 76.72C191.939 76.72 188.686 76.08 185.806 74.8C182.926 73.4667 180.633 71.68 178.926 69.44C177.273 67.2 176.366 64.72 176.206 62H187.486C187.699 63.7067 188.526 65.12 189.966 66.24C191.459 67.36 193.299 67.92 195.486 67.92C197.619 67.92 199.273 67.4933 200.446 66.64C201.673 65.7867 202.286 64.6933 202.286 63.36C202.286 61.92 201.539 60.8533 200.046 60.16C198.606 59.4133 196.286 58.6133 193.086 57.76C189.779 56.96 187.059 56.1333 184.926 55.28C182.846 54.4267 181.033 53.12 179.486 51.36C177.993 49.6 177.246 47.2267 177.246 44.24C177.246 41.7867 177.939 39.5467 179.326 37.52C180.766 35.4933 182.793 33.8933 185.406 32.72C188.073 31.5467 191.193 30.96 194.766 30.96C200.046 30.96 204.259 32.2933 207.406 34.96C210.553 37.5733 212.286 41.12 212.606 45.6H201.886C201.726 43.84 200.979 42.4533 199.646 41.44C198.366 40.3733 196.633 39.84 194.446 39.84C192.419 39.84 190.846 40.2133 189.726 40.96C188.659 41.7067 188.126 42.7467 188.126 44.08C188.126 45.5733 188.873 46.72 190.366 47.52C191.859 48.2667 194.179 49.04 197.326 49.84C200.526 50.64 203.166 51.4667 205.246 52.32C207.326 53.1733 209.113 54.5067 210.606 56.32C212.153 58.08 212.953 60.4267 213.006 63.36C213.006 65.92 212.286 68.2133 210.846 70.24C209.459 72.2667 207.433 73.8667 204.766 75.04C202.153 76.16 199.086 76.72 195.566 76.72ZM236.68 19.2L235.4 57.84H225.96L224.6 19.2H236.68ZM230.92 76.56C228.893 76.56 227.213 75.9467 225.88 74.72C224.6 73.44 223.96 71.8667 223.96 70C223.96 68.1333 224.6 66.5867 225.88 65.36C227.213 64.08 228.893 63.44 230.92 63.44C232.893 63.44 234.52 64.08 235.8 65.36C237.08 66.5867 237.72 68.1333 237.72 70C237.72 71.8667 237.08 73.44 235.8 74.72C234.52 75.9467 232.893 76.56 230.92 76.56Z" fill="#A04063"/>
</svg>
