<svg width="321" height="334" viewBox="0 0 321 334" fill="none" xmlns="http://www.w3.org/2000/svg">
<ellipse cx="276.999" cy="40.5405" rx="2.5" ry="3" transform="rotate(166.152 276.999 40.5405)" fill="white"/>
<circle cx="239.529" cy="60.5" r="2.5" fill="white"/>
<circle cx="255.529" cy="300.5" r="2.5" fill="white"/>
<circle cx="203.029" cy="101" r="2" fill="white"/>
<circle cx="190.529" cy="280.5" r="1.5" fill="white"/>
<circle cx="298.529" cy="328.5" r="2.5" fill="white"/>
<circle cx="183.029" cy="89" r="1" fill="white"/>
<circle cx="244.029" cy="328" r="1" fill="white"/>
<circle cx="226.029" cy="306" r="1" fill="white"/>
<circle cx="232.529" cy="318.5" r="1.5" fill="white"/>
<circle cx="226.93" cy="278.38" r="2.5" transform="rotate(85.5729 226.93 278.38)" fill="white"/>
<circle cx="318.177" cy="169.209" r="2" transform="rotate(85.5729 318.177 169.209)" fill="white"/>
<circle cx="247.778" cy="249.686" r="2.5" transform="rotate(85.5729 247.778 249.686)" fill="white"/>
<circle cx="207.9" cy="259.292" r="1" transform="rotate(85.5729 207.9 259.292)" fill="white"/>
<circle cx="246.333" cy="276.376" r="1" transform="rotate(85.5729 246.333 276.376)" fill="white"/>
<circle cx="266.879" cy="256.732" r="1" transform="rotate(85.5729 266.879 256.732)" fill="white"/>
<circle cx="278.64" cy="283.611" r="1.5" transform="rotate(85.5729 278.64 283.611)" fill="white"/>
<circle cx="203.456" cy="130.427" r="3.83924" transform="rotate(43.3721 203.456 130.427)" fill="white"/>
<circle cx="245.635" cy="103.777" r="2.5" transform="rotate(43.3721 245.635 103.777)" fill="white"/>
<circle cx="190.595" cy="158.395" r="2" transform="rotate(43.3721 190.595 158.395)" fill="white"/>
<circle cx="230.329" cy="87.9415" r="1.5" transform="rotate(43.3721 230.329 87.9415)" fill="white"/>
<circle cx="178.443" cy="129.03" r="1" transform="rotate(43.3721 178.443 129.03)" fill="white"/>
<circle cx="218.39" cy="115.869" r="1" transform="rotate(43.3721 218.39 115.869)" fill="white"/>
<circle cx="296.443" cy="15.4136" r="1" transform="rotate(43.3721 296.443 15.4136)" fill="white"/>
<circle cx="216.554" cy="101.066" r="1.5" transform="rotate(43.3721 216.554 101.066)" fill="white"/>
<circle cx="230.545" cy="14.5158" r="2.5" transform="rotate(128.945 230.545 14.5158)" fill="white"/>
<circle cx="269.676" cy="106.156" r="2.5" transform="rotate(128.945 269.676 106.156)" fill="white"/>
<circle cx="284.282" cy="89.674" r="1.5" transform="rotate(128.945 284.282 89.674)" fill="white"/>
<circle cx="274.896" cy="61.5158" r="2.5" transform="rotate(128.945 274.896 61.5158)" fill="white"/>
<circle cx="255.517" cy="79.9258" r="1" transform="rotate(128.945 255.517 79.9258)" fill="white"/>
<circle cx="283.942" cy="79.7554" r="1" transform="rotate(128.945 283.942 79.7554)" fill="white"/>
<circle cx="270.134" cy="76.9533" r="1.5" transform="rotate(128.945 270.134 76.9533)" fill="white"/>
<circle cx="145.529" cy="119.5" r="2.5" fill="white"/>
<circle cx="205.529" cy="323.5" r="2.5" fill="white"/>
<circle cx="164.029" cy="105" r="2" fill="white"/>
<circle cx="306.529" cy="182.5" r="1.5" fill="white"/>
<circle cx="290.529" cy="207.5" r="2.5" fill="white"/>
<circle cx="297.029" cy="248" r="1" fill="white"/>
<circle cx="317.029" cy="211" r="1" fill="white"/>
<circle cx="299.029" cy="189" r="1" fill="white"/>
<circle cx="305.529" cy="201.5" r="1.5" fill="white"/>
<circle cx="265.529" cy="221.5" r="2.5" fill="white"/>
<circle cx="276.529" cy="174.5" r="2.5" fill="white"/>
<circle cx="274.029" cy="252" r="2" fill="white"/>
<circle cx="254.529" cy="173.5" r="1.5" fill="white"/>
<circle cx="302.529" cy="291.5" r="2.5" fill="white"/>
<circle cx="245.029" cy="239" r="1" fill="white"/>
<circle cx="265.029" cy="202" r="1" fill="white"/>
<circle cx="247.029" cy="180" r="1" fill="white"/>
<circle cx="253.529" cy="192.5" r="1.5" fill="white"/>
<circle cx="247.93" cy="152.38" r="2.5" transform="rotate(85.5729 247.93 152.38)" fill="white"/>
<circle cx="295.639" cy="159.719" r="2.5" transform="rotate(85.5729 295.639 159.719)" fill="white"/>
<circle cx="218.177" cy="163.209" r="2" transform="rotate(85.5729 218.177 163.209)" fill="white"/>
<circle cx="294.938" cy="137.708" r="1.5" transform="rotate(85.5729 294.938 137.708)" fill="white"/>
<circle cx="268.778" cy="123.686" r="2.5" transform="rotate(85.5729 268.778 123.686)" fill="white"/>
<circle cx="228.9" cy="133.292" r="1" transform="rotate(85.5729 228.9 133.292)" fill="white"/>
<circle cx="267.333" cy="150.376" r="1" transform="rotate(85.5729 267.333 150.376)" fill="white"/>
<circle cx="287.879" cy="130.732" r="1" transform="rotate(85.5729 287.879 130.732)" fill="white"/>
<circle cx="275.917" cy="138.177" r="1.5" transform="rotate(85.5729 275.917 138.177)" fill="white"/>
<circle cx="218.313" cy="246.5" r="2.5" fill="white"/>
<circle cx="317.313" cy="125.5" r="1.5" fill="white"/>
<circle cx="310.715" cy="104.38" r="2.5" transform="rotate(85.5729 310.715 104.38)" fill="white"/>
<circle cx="217.529" cy="224.5" r="2.5" fill="white"/>
<circle cx="228.529" cy="177.5" r="2.5" fill="white"/>
<circle cx="226.029" cy="255" r="2" fill="white"/>
<circle cx="206.529" cy="176.5" r="1.5" fill="white"/>
<circle cx="190.529" cy="201.5" r="2.5" fill="white"/>
<circle cx="197.029" cy="242" r="1" fill="white"/>
<circle cx="217.029" cy="205" r="1" fill="white"/>
<circle cx="199.029" cy="183" r="1" fill="white"/>
<circle cx="205.529" cy="195.5" r="1.5" fill="white"/>
<circle cx="146.529" cy="246.5" r="2.5" fill="white"/>
<circle cx="157.529" cy="199.5" r="2.5" fill="white"/>
<circle cx="155.029" cy="277" r="2" fill="white"/>
<circle cx="135.529" cy="198.5" r="1.5" fill="white"/>
<circle cx="119.529" cy="223.5" r="2.5" fill="white"/>
<circle cx="126.029" cy="264" r="1" fill="white"/>
<circle cx="146.029" cy="227" r="1" fill="white"/>
<circle cx="128.029" cy="205" r="1" fill="white"/>
<circle cx="134.529" cy="217.5" r="1.5" fill="white"/>
<circle cx="130.309" cy="175.77" r="3.99949" transform="rotate(85.5729 130.309 175.77)" fill="white"/>
<circle cx="176.639" cy="184.719" r="2.5" transform="rotate(85.5729 176.639 184.719)" fill="white"/>
<circle cx="99.1773" cy="188.209" r="2" transform="rotate(85.5729 99.1773 188.209)" fill="white"/>
<circle cx="175.938" cy="162.708" r="1.5" transform="rotate(85.5729 175.938 162.708)" fill="white"/>
<circle cx="149.778" cy="148.686" r="2.5" transform="rotate(85.5729 149.778 148.686)" fill="white"/>
<circle cx="109.9" cy="158.292" r="1" transform="rotate(85.5729 109.9 158.292)" fill="white"/>
<circle cx="148.333" cy="175.376" r="1" transform="rotate(85.5729 148.333 175.376)" fill="white"/>
<circle cx="168.879" cy="155.732" r="1" transform="rotate(85.5729 168.879 155.732)" fill="white"/>
<circle cx="156.917" cy="163.177" r="1.5" transform="rotate(85.5729 156.917 163.177)" fill="white"/>
<circle cx="26.6345" cy="122.777" r="2.5" transform="rotate(43.3721 26.6345 122.777)" fill="white"/>
<circle cx="11.3292" cy="106.942" r="1.5" transform="rotate(43.3721 11.3292 106.942)" fill="white"/>
<circle cx="1.41359" cy="106.516" r="1" transform="rotate(43.3721 1.41359 106.516)" fill="white"/>
<circle cx="21.0361" cy="87.0578" r="2.5" transform="rotate(128.945 21.0361 87.0578)" fill="white"/>
<circle cx="50.6762" cy="125.156" r="2.5" transform="rotate(128.945 50.6762 125.156)" fill="white"/>
<circle cx="65.2822" cy="108.674" r="1.5" transform="rotate(128.945 65.2822 108.674)" fill="white"/>
<circle cx="59.4456" cy="80.1391" r="5.02411" transform="rotate(128.945 59.4456 80.1391)" fill="white"/>
<circle cx="36.5164" cy="98.9258" r="1" transform="rotate(128.945 36.5164 98.9258)" fill="white"/>
<circle cx="68.4353" cy="20.4063" r="1" transform="rotate(128.945 68.4353 20.4063)" fill="white"/>
<circle cx="51.1338" cy="95.9533" r="1.5" transform="rotate(128.945 51.1338 95.9533)" fill="white"/>
<circle cx="98.5289" cy="249.5" r="2.5" fill="white"/>
<circle cx="109.529" cy="202.5" r="2.5" fill="white"/>
<circle cx="107.029" cy="280" r="2" fill="white"/>
<circle cx="87.5289" cy="201.5" r="1.5" fill="white"/>
<circle cx="71.5289" cy="226.5" r="2.5" fill="white"/>
<circle cx="78.0289" cy="267" r="1" fill="white"/>
<circle cx="98.0289" cy="230" r="1" fill="white"/>
<circle cx="80.0289" cy="208" r="1" fill="white"/>
<circle cx="86.5289" cy="220.5" r="1.5" fill="white"/>
<circle cx="46.5289" cy="240.5" r="2.5" fill="white"/>
<circle cx="57.5289" cy="193.5" r="2.5" fill="white"/>
<circle cx="55.0289" cy="271" r="2" fill="white"/>
<circle cx="35.5289" cy="192.5" r="1.5" fill="white"/>
<circle cx="21.0289" cy="218" r="4" fill="white"/>
<circle cx="26.0289" cy="258" r="1" fill="white"/>
<circle cx="46.0289" cy="221" r="1" fill="white"/>
<circle cx="28.0289" cy="199" r="1" fill="white"/>
<circle cx="34.5289" cy="211.5" r="1.5" fill="white"/>
<circle cx="28.93" cy="171.38" r="2.5" transform="rotate(85.5729 28.93 171.38)" fill="white"/>
<circle cx="76.639" cy="178.719" r="2.5" transform="rotate(85.5729 76.639 178.719)" fill="white"/>
<circle cx="75.9378" cy="156.708" r="1.5" transform="rotate(85.5729 75.9378 156.708)" fill="white"/>
<circle cx="49.7775" cy="142.686" r="2.5" transform="rotate(85.5729 49.7775 142.686)" fill="white"/>
<circle cx="9.89988" cy="152.292" r="1" transform="rotate(85.5729 9.89988 152.292)" fill="white"/>
<circle cx="48.3332" cy="169.376" r="1" transform="rotate(85.5729 48.3332 169.376)" fill="white"/>
<circle cx="68.8784" cy="149.732" r="1" transform="rotate(85.5729 68.8784 149.732)" fill="white"/>
<circle cx="56.9173" cy="157.177" r="1.5" transform="rotate(85.5729 56.9173 157.177)" fill="white"/>
<circle cx="120.313" cy="145.5" r="2.5" fill="white"/>
<circle cx="98.3134" cy="144.5" r="1.5" fill="white"/>
<circle cx="91.7145" cy="123.38" r="2.5" transform="rotate(85.5729 91.7145 123.38)" fill="white"/>
<circle cx="112.562" cy="94.6855" r="2.5" transform="rotate(85.5729 112.562 94.6855)" fill="white"/>
<circle cx="111.118" cy="121.376" r="1" transform="rotate(85.5729 111.118 121.376)" fill="white"/>
<circle cx="131.663" cy="101.732" r="1" transform="rotate(85.5729 131.663 101.732)" fill="white"/>
<circle cx="119.702" cy="109.177" r="1.5" transform="rotate(85.5729 119.702 109.177)" fill="white"/>
<circle cx="109.23" cy="60.7765" r="2.5" transform="rotate(43.3721 109.23 60.7765)" fill="white"/>
<circle cx="93.9244" cy="44.9415" r="1.5" transform="rotate(43.3721 93.9244 44.9415)" fill="white"/>
<circle cx="81.9851" cy="72.869" r="1" transform="rotate(43.3721 81.9851 72.869)" fill="white"/>
<circle cx="84.0088" cy="44.5159" r="1" transform="rotate(43.3721 84.0088 44.5159)" fill="white"/>
<circle cx="51.1495" cy="62.1205" r="1.5" transform="rotate(43.3721 51.1495 62.1205)" fill="white"/>
<circle cx="103.631" cy="25.0578" r="2.5" transform="rotate(128.945 103.631 25.0578)" fill="white"/>
<circle cx="308.545" cy="58.5158" r="2.5" transform="rotate(128.945 308.545 58.5158)" fill="white"/>
<circle cx="147.878" cy="46.674" r="1.5" transform="rotate(128.945 147.878 46.674)" fill="white"/>
<circle cx="138.491" cy="18.5158" r="2.5" transform="rotate(128.945 138.491 18.5158)" fill="white"/>
<circle cx="119.112" cy="36.9258" r="1" transform="rotate(128.945 119.112 36.9258)" fill="white"/>
<circle cx="147.537" cy="36.7554" r="1" transform="rotate(128.945 147.537 36.7554)" fill="white"/>
<circle cx="133.729" cy="33.9533" r="1.5" transform="rotate(128.945 133.729 33.9533)" fill="white"/>
<circle cx="132.373" cy="80.6855" r="2.5" transform="rotate(85.5729 132.373 80.6855)" fill="white"/>
<circle cx="174.31" cy="61.3803" r="2.5" transform="rotate(85.5729 174.31 61.3803)" fill="white"/>
<circle cx="195.157" cy="32.6855" r="2.5" transform="rotate(85.5729 195.157 32.6855)" fill="white"/>
<circle cx="193.713" cy="59.3765" r="1" transform="rotate(85.5729 193.713 59.3765)" fill="white"/>
<circle cx="214.258" cy="39.7322" r="1" transform="rotate(85.5729 214.258 39.7322)" fill="white"/>
<circle cx="202.297" cy="47.1775" r="1.5" transform="rotate(85.5729 202.297 47.1775)" fill="white"/>
<circle cx="9.52893" cy="196.5" r="2.5" fill="white"/>
<circle cx="7.02893" cy="274" r="2" fill="white"/>
<circle cx="24.5289" cy="53.5" r="2.5" fill="white"/>
<circle cx="13.0289" cy="81" r="1" fill="white"/>
<circle cx="43.639" cy="38.7195" r="2.5" transform="rotate(85.5729 43.639 38.7195)" fill="white"/>
<circle cx="42.9378" cy="16.708" r="1.5" transform="rotate(85.5729 42.9378 16.708)" fill="white"/>
<circle cx="16.7775" cy="2.68552" r="2.5" transform="rotate(85.5729 16.7775 2.68552)" fill="white"/>
<circle cx="15.3332" cy="29.3765" r="1" transform="rotate(85.5729 15.3332 29.3765)" fill="white"/>
<circle cx="35.8784" cy="9.73217" r="1" transform="rotate(85.5729 35.8784 9.73217)" fill="white"/>
<circle cx="23.9173" cy="17.1775" r="1.5" transform="rotate(85.5729 23.9173 17.1775)" fill="white"/>
<circle cx="28.566" cy="290.054" r="2" fill="white"/>
<circle cx="31.4561" cy="319.669" r="3.83924" transform="rotate(43.3721 31.4561 319.669)" fill="white"/>
<circle cx="43.927" cy="304.923" r="1" transform="rotate(43.3721 43.927 304.923)" fill="white"/>
<circle cx="42.0914" cy="290.12" r="1.5" transform="rotate(43.3721 42.0914 290.12)" fill="white"/>
<circle cx="113.934" cy="312.198" r="2.5" fill="white"/>
<circle cx="93.4337" cy="329.698" r="1" fill="white"/>
<circle cx="84.7145" cy="302.078" r="2.5" transform="rotate(85.5729 84.7145 302.078)" fill="white"/>
<circle cx="104.118" cy="300.074" r="1" transform="rotate(85.5729 104.118 300.074)" fill="white"/>
<circle cx="181.443" cy="332.03" r="1" transform="rotate(43.3721 181.443 332.03)" fill="white"/>
<circle cx="148.529" cy="322.5" r="2.5" fill="white"/>
<circle cx="167.029" cy="308" r="2" fill="white"/>
<circle cx="256.239" cy="23.7706" r="1" transform="rotate(166.152 256.239 23.7706)" fill="white"/>
<circle cx="289.303" cy="38.4384" r="2.5" transform="rotate(-150.476 289.303 38.4384)" fill="white"/>
</svg>
