<svg width="54" height="54" viewBox="0 0 54 54" fill="none" xmlns="http://www.w3.org/2000/svg">
<path d="M20.25 27L24.75 31.5L33.75 22.5M17.8793 9.56187L14.0669 9.53334C11.5553 9.51453 9.51453 11.5553 9.53334 14.0669L9.56187 17.8793C9.57098 19.0961 9.08692 20.2647 8.22006 21.1187L5.50411 23.7944C3.71486 25.5571 3.71486 28.4431 5.50411 30.2058L8.22006 32.8813C9.08692 33.7354 9.57098 34.904 9.56187 36.1208L9.53334 39.9332C9.51453 42.4447 11.5553 44.4854 14.0669 44.4668L17.8793 44.4382C19.0961 44.4292 20.2647 44.9132 21.1187 45.7801L23.7944 48.4961C25.5571 50.2853 28.4431 50.2853 30.2058 48.4961L32.8813 45.7801C33.7354 44.9132 34.904 44.4292 36.1208 44.4382L39.9332 44.4668C42.4447 44.4854 44.4854 42.4447 44.4668 39.9332L44.4382 36.1208C44.4292 34.904 44.9132 33.7354 45.7801 32.8813L48.4961 30.2058C50.2853 28.4431 50.2853 25.5571 48.4961 23.7944L45.7801 21.1187C44.9132 20.2647 44.4292 19.0961 44.4382 17.8793L44.4668 14.0669C44.4854 11.5553 42.4447 9.51453 39.9332 9.53334L36.1208 9.56187C34.904 9.57098 33.7354 9.08692 32.8813 8.22006L30.2058 5.50411C28.4431 3.71486 25.5568 3.71486 23.7944 5.50411L21.1187 8.22006C20.2647 9.08692 19.0961 9.57098 17.8793 9.56187Z" fill="#1F3451"/>
<path d="M20.25 27L24.75 31.5L33.75 22.5M17.8793 9.56187L14.0669 9.53334C11.5553 9.51453 9.51453 11.5553 9.53334 14.0669L9.56187 17.8793C9.57098 19.0961 9.08692 20.2647 8.22006 21.1187L5.50411 23.7944C3.71486 25.5571 3.71486 28.4431 5.50411 30.2058L8.22006 32.8813C9.08692 33.7354 9.57098 34.904 9.56187 36.1208L9.53334 39.9332C9.51453 42.4447 11.5553 44.4854 14.0669 44.4668L17.8793 44.4382C19.0961 44.4292 20.2647 44.9132 21.1187 45.7801L23.7944 48.4961C25.5571 50.2853 28.4431 50.2853 30.2058 48.4961L32.8813 45.7801C33.7354 44.9132 34.904 44.4292 36.1208 44.4382L39.9332 44.4668C42.4447 44.4854 44.4854 42.4447 44.4668 39.9332L44.4382 36.1208C44.4292 34.904 44.9132 33.7354 45.7801 32.8813L48.4961 30.2058C50.2853 28.4431 50.2853 25.5571 48.4961 23.7944L45.7801 21.1187C44.9132 20.2647 44.4292 19.0961 44.4382 17.8793L44.4668 14.0669C44.4854 11.5553 42.4447 9.51453 39.9332 9.53334L36.1208 9.56187C34.904 9.57098 33.7354 9.08692 32.8813 8.22006L30.2058 5.50411C28.4431 3.71486 25.5568 3.71486 23.7944 5.50411L21.1187 8.22006C20.2647 9.08692 19.0961 9.57098 17.8793 9.56187Z" stroke="white" stroke-width="2" stroke-linecap="round" stroke-linejoin="round"/>
</svg>
